<?xml version="1.0" standalone="no"?>
<!DOCTYPE svg PUBLIC "-//W3C//DTD SVG 20010904//EN"
 "http://www.w3.org/TR/2001/REC-SVG-20010904/DTD/svg10.dtd">
<svg version="1.0" xmlns="http://www.w3.org/2000/svg"
 width="64.000000pt" height="64.000000pt" viewBox="0 0 64.000000 64.000000"
 preserveAspectRatio="xMidYMid meet">

<g transform="translate(0.000000,64.000000) scale(0.100000,-0.100000)"
fill="#000000" stroke="none">
<path d="M135 627 c-45 -21 -92 -80 -100 -124 -4 -27 -1 -53 11 -84 22 -56 22
-142 0 -198 -23 -59 -14 -112 27 -158 53 -60 130 -79 190 -48 26 13 31 13 50
0 15 -10 47 -15 102 -15 95 0 138 18 171 71 l23 36 -25 37 c-35 51 -70 66
-153 66 -69 0 -71 1 -88 33 -21 41 -21 113 0 154 38 72 14 165 -55 216 -33 25
-113 32 -153 14z m124 -41 c61 -32 83 -116 48 -183 -21 -40 -22 -125 -1 -164
15 -29 14 -31 -16 -66 -26 -29 -31 -42 -29 -75 4 -45 -9 -58 -61 -58 -65 0
-130 61 -130 122 0 13 9 47 20 76 25 66 25 98 0 164 -26 68 -25 97 3 139 39
57 106 76 166 45z m275 -442 c34 -34 33 -46 -5 -78 -27 -23 -39 -26 -111 -26
-93 0 -118 14 -118 63 0 55 22 67 120 67 81 0 89 -2 114 -26z"/>
<path d="M180 516 c0 -30 4 -36 21 -36 17 0 20 5 17 32 -2 22 -9 34 -20 36
-15 3 -18 -4 -18 -32z"/>
<path d="M180 320 c0 -103 1 -110 20 -110 19 0 20 7 20 110 0 103 -1 110 -20
110 -19 0 -20 -7 -20 -110z"/>
<path d="M180 124 c0 -28 3 -35 18 -32 11 2 18 14 20 36 3 27 0 32 -17 32 -17
0 -21 -6 -21 -36z"/>
</g>
</svg>
