<?xml version="1.0" standalone="no"?>
<!DOCTYPE svg PUBLIC "-//W3C//DTD SVG 20010904//EN"
 "http://www.w3.org/TR/2001/REC-SVG-20010904/DTD/svg10.dtd">
<svg version="1.0" xmlns="http://www.w3.org/2000/svg"
 width="64.000000pt" height="64.000000pt" viewBox="0 0 64.000000 64.000000"
 preserveAspectRatio="xMidYMid meet">

<g transform="translate(0.000000,64.000000) scale(0.100000,-0.100000)"
fill="#000000" stroke="none">
<path d="M115 621 c-69 -32 -115 -102 -115 -173 1 -68 60 -153 123 -177 16 -6
88 -11 162 -11 144 0 165 -7 165 -54 0 -34 -24 -50 -62 -41 -18 4 -61 9 -94
12 l-62 5 0 -91 0 -91 58 0 c39 0 62 5 70 15 8 10 31 15 67 15 91 0 156 42
194 125 45 97 2 216 -94 268 -38 20 -59 22 -214 25 l-173 4 0 -39 c0 -21 9
-55 20 -76 19 -34 19 -37 3 -37 -29 0 -82 37 -103 72 -37 62 -18 158 41 201
29 21 95 33 133 23 13 -3 39 -18 56 -32 23 -20 34 -24 42 -16 27 27 -75 92
-142 92 -19 0 -53 -9 -75 -19z m275 -266 l0 -55 -71 0 c-67 0 -73 2 -105 34
-19 19 -34 43 -34 55 0 20 5 21 105 21 l105 0 0 -55z m136 23 c31 -21 64 -66
64 -85 0 -6 -25 -15 -54 -22 -48 -11 -58 -10 -80 5 -23 14 -26 23 -26 76 l0
61 32 -7 c18 -3 47 -16 64 -28z m74 -153 c0 -35 -23 -86 -49 -109 -22 -20 -22
-20 -47 6 -22 21 -24 31 -19 61 6 33 12 38 54 51 63 19 61 19 61 -9z m-262
-132 l3 -53 -35 0 c-39 0 -43 8 -23 41 10 17 10 23 0 26 -7 3 -13 14 -13 24 0
17 6 20 33 17 31 -3 32 -4 35 -55z m132 12 c13 -14 21 -27 18 -30 -3 -3 -28
-8 -57 -12 l-51 -6 0 31 c0 26 4 31 28 35 15 2 30 5 33 6 3 0 16 -10 29 -24z"/>
<path d="M280 365 c0 -8 9 -15 20 -15 11 0 20 7 20 15 0 8 -9 15 -20 15 -11 0
-20 -7 -20 -15z"/>
</g>
</svg>
