<?xml version="1.0" standalone="no"?>
<!DOCTYPE svg PUBLIC "-//W3C//DTD SVG 20010904//EN"
 "http://www.w3.org/TR/2001/REC-SVG-20010904/DTD/svg10.dtd">
<svg version="1.0" xmlns="http://www.w3.org/2000/svg"
 width="64.000000pt" height="64.000000pt" viewBox="0 0 64.000000 64.000000"
 preserveAspectRatio="xMidYMid meet">

<g transform="translate(0.000000,64.000000) scale(0.100000,-0.100000)"
fill="#000000" stroke="none">
<path d="M100 553 c-39 -15 -50 -36 -50 -97 0 -75 -20 -166 -37 -166 -9 0 -13
-17 -13 -55 0 -42 3 -55 15 -55 8 0 15 -6 15 -14 0 -24 48 -73 77 -79 34 -6
88 15 104 41 11 18 13 18 39 -11 22 -24 34 -30 70 -30 36 0 48 6 70 30 26 29
28 29 39 11 16 -26 70 -47 104 -41 29 6 77 55 77 79 0 8 7 14 15 14 12 0 15
13 15 55 0 38 -4 55 -13 55 -17 0 -37 91 -37 166 0 99 1 99 -259 101 -119 1
-223 -1 -231 -4z m448 -83 l3 -45 -43 3 c-35 3 -48 -1 -71 -22 l-27 -25 -26
24 c-36 34 -92 34 -128 0 l-26 -24 -27 25 c-23 21 -36 25 -70 22 l-43 -3 0 41
c0 22 3 44 7 48 4 3 106 5 227 4 l221 -3 3 -45z m-374 -92 c15 -13 29 -38 32
-55 l7 -33 -72 0 c-70 0 -71 0 -71 26 0 25 48 84 69 84 5 0 21 -10 35 -22z
m187 -7 c17 -17 29 -40 29 -55 0 -25 -1 -26 -70 -26 -69 0 -70 1 -70 26 0 26
48 84 70 84 6 0 25 -13 41 -29z m180 0 c17 -17 29 -40 29 -55 0 -26 -1 -26
-71 -26 l-71 0 6 33 c6 31 46 77 67 77 6 0 24 -13 40 -29z m59 -136 c0 -14 -4
-25 -9 -25 -5 0 -12 -14 -16 -30 -16 -71 -99 -77 -121 -10 -9 26 -18 36 -37
38 -22 3 -27 -2 -35 -30 -5 -20 -19 -39 -35 -48 -24 -13 -30 -13 -54 0 -16 9
-30 28 -35 48 -8 28 -13 33 -35 30 -19 -2 -28 -12 -37 -38 -22 -67 -105 -61
-121 10 -4 16 -11 30 -16 30 -5 0 -9 11 -9 25 l0 25 280 0 280 0 0 -25z"/>
</g>
</svg>
