<svg width="390" height="211" viewBox="0 0 390 211" fill="none" xmlns="http://www.w3.org/2000/svg">
<g clip-path="url(#clip0_83_392)">
<mask id="mask0_83_392" style="mask-type:luminance" maskUnits="userSpaceOnUse" x="0" y="0" width="390" height="211">
<path d="M390 0H0V211H390V0Z" fill="white"/>
</mask>
<g mask="url(#mask0_83_392)">
<path d="M284.584 93.2958C291.537 140.937 257.018 184.979 207.486 191.665C157.953 198.352 112.163 165.15 105.212 117.508C98.2603 69.8668 132.779 25.8256 182.312 19.1394C231.845 12.4533 277.633 45.6543 284.584 93.2958Z" fill="url(#paint0_radial_83_392)"/>
<path d="M273.902 94.5912C280.036 136.629 249.578 175.491 205.871 181.39C162.164 187.29 121.76 157.994 115.627 115.956C109.493 73.9179 139.952 35.0566 183.658 29.1568C227.364 23.2572 267.77 52.5532 273.902 94.5912Z" fill="url(#paint1_radial_83_392)"/>
<path fill-rule="evenodd" clip-rule="evenodd" d="M159.354 57.8919C158.661 56.7197 157.111 56.3102 155.892 56.9772C150.406 59.9799 143.403 65.9386 138.804 72.4855C136.5 75.765 134.688 79.3493 134.069 82.9142C133.439 86.5467 134.049 90.2294 136.691 93.3626C138.265 95.2284 140.1 96.4557 142.215 96.8769C144.313 97.2948 146.323 96.8472 148.112 96.0388C151.55 94.4858 154.901 91.2497 157.878 88.2124C158.467 87.6113 159.045 87.014 159.614 86.4264C162.084 83.8754 164.375 81.5091 166.597 79.8287C169.429 77.6884 171.065 77.4829 172.219 78.0645C174.464 79.1967 175.399 80.3963 175.704 81.4063C176.004 82.4017 175.858 83.7693 174.688 85.5997C172.274 89.3753 166.17 94.0077 156.082 98.4973C145.269 103.309 135.132 114.002 132.755 125.87C131.55 131.884 132.346 138.21 136.085 144.103C139.804 149.966 146.304 155.196 156.133 159.317C170.827 165.476 188.969 166.03 207.236 156.988C225.461 147.967 243.596 129.51 258.68 98.0237C259.267 96.7988 258.71 95.3481 257.437 94.7837C256.163 94.2191 254.656 94.7546 254.069 95.9796C239.293 126.816 221.829 144.272 204.913 152.645C188.038 160.998 171.496 160.429 158.162 154.839C149 150.998 143.451 146.338 140.42 141.559C137.408 136.811 136.75 131.744 137.742 126.794C139.757 116.731 148.613 107.203 158.214 102.93C168.54 98.335 175.791 93.1989 179.014 88.1583C180.662 85.5806 181.405 82.7782 180.581 80.0463C179.762 77.3291 177.562 75.2439 174.577 73.7386C170.5 71.6829 166.487 73.6997 163.459 75.9887C160.894 77.9283 158.257 80.6557 155.778 83.2194C155.238 83.7779 154.706 84.3287 154.183 84.8618C151.092 88.0153 148.374 90.5243 145.953 91.6179C144.813 92.1329 143.946 92.2339 143.245 92.0942C142.561 91.9581 141.677 91.5216 140.635 90.2859C139.093 88.4566 138.635 86.2718 139.078 83.7181C139.533 81.097 140.935 78.1766 143.012 75.2199C147.174 69.2939 153.598 63.8527 158.404 61.2222C159.622 60.5552 160.048 59.0642 159.354 57.8919Z" fill="url(#paint2_linear_83_392)" stroke="#E8BE8A" stroke-width="4.51539" stroke-linecap="round"/>
<path fill-rule="evenodd" clip-rule="evenodd" d="M231.794 50.8587C232.487 49.6865 234.039 49.277 235.257 49.944C240.742 52.9466 247.745 58.9054 252.344 65.4523C254.648 68.7318 256.462 72.3161 257.079 75.881C257.709 79.5135 257.099 83.1962 254.457 86.3294C252.885 88.1952 251.048 89.4225 248.934 89.8437C246.835 90.2616 244.827 89.814 243.037 89.0056C239.598 87.4526 236.247 84.2165 233.271 81.1792C232.682 80.5781 232.103 79.9808 231.534 79.3932C229.064 76.8422 226.773 74.4759 224.551 72.7955C221.719 70.6552 220.084 70.4497 218.93 71.0313C216.684 72.1635 215.749 73.363 215.445 74.3731C215.144 75.3685 215.29 76.7361 216.46 78.5665C218.873 82.3421 224.979 86.9745 235.066 91.4641C245.881 96.2761 256.017 106.969 258.393 118.836C259.598 124.851 258.802 131.177 255.064 137.07C251.345 142.933 244.845 148.163 235.016 152.283C220.322 158.443 202.179 158.997 183.912 149.955C165.688 140.934 147.553 122.477 132.468 90.9905C131.881 89.7656 132.438 88.3149 133.711 87.7505C134.985 87.1859 136.493 87.7214 137.08 88.9464C151.854 119.783 169.319 137.239 186.236 145.612C203.111 153.965 219.653 153.395 232.986 147.806C242.149 143.965 247.697 139.304 250.729 134.526C253.74 129.778 254.398 124.711 253.407 119.76C251.392 109.697 242.535 100.169 232.934 95.8969C222.609 91.3018 215.357 86.1657 212.136 81.1251C210.486 78.5474 209.743 75.745 210.568 73.0131C211.386 70.2959 213.586 68.2107 216.572 66.7054C220.649 64.6497 224.66 66.6665 227.689 68.9555C230.254 70.8951 232.891 73.6225 235.371 76.1861C235.909 76.7447 236.444 77.2955 236.966 77.8286C240.057 80.9821 242.775 83.4911 245.194 84.5847C246.336 85.0997 247.203 85.2007 247.904 85.061C248.586 84.9249 249.472 84.4884 250.512 83.2527C252.056 81.4234 252.513 79.2386 252.07 76.6849C251.615 74.0638 250.213 71.1434 248.137 68.1867C243.973 62.2607 237.551 56.8195 232.745 54.189C231.526 53.522 231.099 52.0309 231.794 50.8587Z" fill="url(#paint3_linear_83_392)" stroke="#E8BE8A" stroke-width="4.51539" stroke-linecap="round"/>
<path fill-rule="evenodd" clip-rule="evenodd" d="M206.082 108.269C207.466 108.491 208.4 109.75 208.169 111.08C207.667 113.966 207.382 117.434 207.068 121.247C207.021 121.831 206.972 122.424 206.921 123.024C206.548 127.466 206.095 132.241 205.17 136.655C204.252 141.044 202.826 145.31 200.365 148.62C197.83 152.03 194.219 154.383 189.239 154.821C186.635 155.051 184.129 154.195 181.931 152.959C179.717 151.714 177.612 149.969 175.721 148.102C171.94 144.368 168.729 139.856 166.92 136.935C166.203 135.776 166.598 134.277 167.803 133.587C169.008 132.897 170.566 133.277 171.284 134.436C172.962 137.148 175.941 141.319 179.359 144.694C181.068 146.382 182.815 147.798 184.495 148.743C186.19 149.696 187.618 150.059 188.777 149.957C192.126 149.663 194.46 148.166 196.234 145.779C198.082 143.294 199.329 139.818 200.192 135.692C201.05 131.591 201.486 127.078 201.859 122.631C201.908 122.048 201.956 121.464 202.004 120.883C202.315 117.099 202.619 113.388 203.16 110.275C203.391 108.945 204.699 108.047 206.082 108.269Z" fill="url(#paint4_linear_83_392)" stroke="#E8BE8A" stroke-width="4.51539" stroke-linecap="round"/>
<path fill-rule="evenodd" clip-rule="evenodd" d="M177.036 48.2901C178.419 48.5123 179.353 49.7708 179.122 51.1013C178.621 53.9869 178.335 57.4552 178.021 61.2676C177.973 61.8522 177.925 62.4449 177.874 63.0449C177.501 67.4874 177.047 72.2621 176.123 76.6765C175.205 81.0653 173.779 85.331 171.318 88.6413C168.783 92.0509 165.172 94.4044 160.193 94.8424C157.588 95.0716 155.083 94.2164 152.884 92.9799C150.671 91.735 148.565 89.99 146.675 88.123C142.893 84.3889 139.682 79.877 137.873 76.9557C137.156 75.7967 137.551 74.2978 138.756 73.6078C139.961 72.9179 141.519 73.2979 142.237 74.4569C143.915 77.1686 146.894 81.34 150.312 84.715C152.021 86.4028 153.768 87.819 155.448 88.7638C157.143 89.7173 158.571 90.0804 159.73 89.9785C163.079 89.6838 165.413 88.1867 167.187 85.8005C169.035 83.315 170.282 79.8389 171.145 75.7129C172.003 71.6125 172.439 67.0988 172.812 62.652C172.861 62.0688 172.909 61.4854 172.957 60.9036C173.268 57.1201 173.573 53.409 174.113 50.2964C174.344 48.9661 175.653 48.0678 177.036 48.2901Z" fill="url(#paint5_linear_83_392)" stroke="#E8BE8A" stroke-width="4.51539" stroke-linecap="round"/>
<path fill-rule="evenodd" clip-rule="evenodd" d="M195.114 99.6725C196.497 99.8946 197.431 101.153 197.2 102.484C196.699 105.369 196.413 108.837 196.1 112.65C196.051 113.234 196.003 113.827 195.952 114.427C195.58 118.87 195.125 123.644 194.202 128.059C193.283 132.448 191.857 136.713 189.396 140.024C186.861 143.433 183.25 145.787 178.271 146.225C175.666 146.454 173.161 145.599 170.962 144.362C168.749 143.117 166.643 141.372 164.753 139.505C160.971 135.771 157.76 131.259 155.951 128.338C155.234 127.179 155.629 125.68 156.834 124.99C158.039 124.3 159.598 124.68 160.315 125.839C161.993 128.551 164.972 132.722 168.39 136.097C170.1 137.785 171.846 139.201 173.526 140.146C175.221 141.1 176.649 141.463 177.808 141.361C181.157 141.066 183.491 139.569 185.265 137.183C187.113 134.697 188.36 131.221 189.223 127.095C190.081 122.995 190.517 118.481 190.891 114.034C190.94 113.451 190.987 112.868 191.035 112.286C191.346 108.502 191.651 104.791 192.191 101.679C192.422 100.348 193.731 99.4501 195.114 99.6725Z" fill="url(#paint6_linear_83_392)" stroke="#E8BE8A" stroke-width="4.51539" stroke-linecap="round"/>
<path fill-rule="evenodd" clip-rule="evenodd" d="M215.288 49.5894C184.013 40.5 159.793 60.0933 140.561 77.2138C139.531 78.1301 137.925 78.0703 136.972 77.0803C136.02 76.0906 136.082 74.5454 137.111 73.6293C156.067 56.7552 182.381 34.9235 216.759 44.914C231.512 49.2016 239.994 56.6342 246.472 65.9636C249.667 70.5681 252.371 75.6248 255.088 80.8971C255.531 81.7559 255.976 82.6208 256.421 83.4912C258.733 87.9988 261.123 92.6609 263.939 97.4723C264.627 98.6477 264.195 100.137 262.972 100.798C261.751 101.46 260.201 101.044 259.515 99.8687C256.624 94.9303 254.164 90.1315 251.853 85.6233C251.41 84.7601 250.973 83.9077 250.54 83.0671C247.825 77.8007 245.247 72.9946 242.247 68.6761C236.334 60.1595 228.77 53.5073 215.288 49.5894Z" fill="url(#paint7_linear_83_392)" stroke="#E8BE8A" stroke-width="4.51539" stroke-linecap="round"/>
<path fill-rule="evenodd" clip-rule="evenodd" d="M250.222 94.1442C245.83 92.1237 240.762 91.8498 236.123 94.7969C229.359 99.0947 225.84 107.001 224.585 115.914C223.336 124.78 224.406 134.152 226.302 140.65C226.681 141.948 225.893 143.296 224.542 143.661C223.194 144.025 221.792 143.268 221.412 141.969C219.347 134.888 218.203 124.844 219.554 115.258C220.896 105.721 224.794 96.1413 233.324 90.7215C239.757 86.6353 246.772 87.1431 252.413 89.7382C257.957 92.2899 262.482 96.9882 264.152 101.861C264.591 103.142 263.865 104.523 262.535 104.945C261.202 105.367 259.766 104.671 259.328 103.39C258.154 99.9596 254.707 96.2083 250.222 94.1442Z" fill="url(#paint8_linear_83_392)" stroke="#E8BE8A" stroke-width="4.51539" stroke-linecap="round"/>
<path fill-rule="evenodd" clip-rule="evenodd" d="M239.698 102.213C241.148 102.435 242.127 103.696 241.885 105.028C241.359 107.918 241.061 111.391 240.732 115.21C240.681 115.795 240.63 116.389 240.577 116.99C240.185 121.439 239.71 126.221 238.741 130.642C237.778 135.037 236.281 139.309 233.701 142.625C231.043 146.039 227.254 148.396 222.032 148.835C219.302 149.064 216.673 148.208 214.368 146.97C212.046 145.723 209.838 143.975 207.856 142.106C203.889 138.366 200.522 133.847 198.625 130.921C197.873 129.761 198.287 128.259 199.551 127.568C200.815 126.877 202.449 127.258 203.202 128.419C204.961 131.135 208.085 135.312 211.67 138.692C213.464 140.383 215.294 141.801 217.057 142.747C218.835 143.702 220.332 144.066 221.548 143.964C225.06 143.669 227.508 142.169 229.369 139.779C231.307 137.29 232.615 133.809 233.519 129.677C234.418 125.57 234.877 121.05 235.267 116.596C235.318 116.012 235.369 115.428 235.42 114.845C235.745 111.056 236.066 107.339 236.632 104.222C236.874 102.89 238.247 101.99 239.698 102.213Z" fill="url(#paint9_linear_83_392)" stroke="#E8BE8A" stroke-width="4.51539" stroke-linecap="round"/>
<path fill-rule="evenodd" clip-rule="evenodd" d="M226.755 61.0598C230.984 63.5856 233.673 67.3965 234.76 69.1214C235.487 70.2747 235.105 71.7765 233.905 72.4757C232.706 73.175 231.144 72.8069 230.417 71.6536C229.472 70.1547 227.287 67.1277 224.075 65.2089C221.039 63.3949 217.009 62.4966 211.752 65.2126C210.62 65.7968 209.04 67.1005 207.149 69.1884C205.296 71.2338 203.277 73.8824 201.248 76.9724C197.188 83.1549 193.172 90.9662 190.385 98.9621C187.585 106.993 186.097 115.008 186.879 121.672C187.65 128.239 190.576 133.298 196.528 136.083C200.339 137.866 204.226 137.513 208.339 135.544C212.54 133.534 216.795 129.909 220.965 125.475C225.113 121.066 229.028 116.019 232.594 111.312C233.08 110.67 233.561 110.033 234.037 109.403C237 105.48 239.742 101.848 242.068 99.3378C246.645 94.4012 251.274 92.7847 255.33 93.0437C259.226 93.2926 262.139 95.2483 263.502 96.669C264.453 97.6601 264.39 99.2051 263.358 100.12C262.328 101.035 260.721 100.973 259.77 99.9819C259.102 99.2862 257.343 98.0673 254.993 97.9173C252.803 97.7774 249.612 98.5375 245.86 102.588C243.718 104.9 241.152 108.294 238.164 112.251C237.687 112.883 237.197 113.53 236.698 114.189C233.127 118.901 229.076 124.133 224.731 128.752C220.409 133.348 215.646 137.503 210.602 139.917C205.471 142.372 199.889 143.087 194.306 140.475C186.395 136.773 182.744 129.98 181.833 122.22C180.933 114.556 182.657 105.768 185.57 97.4095C188.496 89.0166 192.693 80.853 196.955 74.364C199.087 71.1185 201.256 68.2573 203.32 65.9799C205.343 63.745 207.407 61.913 209.349 60.91C216.381 57.2763 222.353 58.4292 226.755 61.0598Z" fill="url(#paint10_linear_83_392)" stroke="#E8BE8A" stroke-width="4.51539" stroke-linecap="round"/>
<path fill-rule="evenodd" clip-rule="evenodd" d="M202.38 55.199C206.609 57.7248 209.298 61.5357 210.385 63.2606C211.112 64.4138 210.73 65.9157 209.53 66.6149C208.331 67.3141 206.769 66.946 206.042 65.7928C205.097 64.2939 202.912 61.2668 199.701 59.3481C196.665 57.5341 192.633 56.6358 187.376 59.3518C186.246 59.936 184.664 61.2397 182.773 63.3276C180.92 65.3729 178.903 68.0216 176.873 71.1115C172.813 77.294 168.797 85.1053 166.01 93.1012C163.21 101.132 161.722 109.147 162.504 115.811C163.275 122.378 166.201 127.437 172.153 130.222C175.964 132.006 179.851 131.652 183.965 129.683C188.164 127.673 192.42 124.048 196.59 119.615C200.737 115.205 204.653 110.159 208.219 105.451C208.705 104.81 209.186 104.172 209.662 103.542C212.625 99.6188 215.367 95.9875 217.693 93.4769C222.27 88.5403 226.899 86.9238 230.955 87.1829C234.851 87.4318 237.764 89.3875 239.127 90.8082C240.078 91.7993 240.015 93.3443 238.983 94.2592C237.953 95.1739 236.346 95.1122 235.395 94.1211C234.727 93.4254 232.968 92.2065 230.618 92.0564C228.428 91.9165 225.237 92.6767 221.485 96.7269C219.343 99.0388 216.777 102.433 213.789 106.39C213.312 107.022 212.822 107.669 212.323 108.328C208.752 113.04 204.701 118.272 200.356 122.891C196.034 127.487 191.271 131.642 186.227 134.056C181.097 136.511 175.514 137.226 169.931 134.614C162.02 130.912 158.369 124.119 157.458 116.359C156.558 108.695 158.282 99.9068 161.195 91.5486C164.121 83.1557 168.318 74.9922 172.58 68.5031C174.712 65.2576 176.881 62.3965 178.944 60.119C180.969 57.8842 183.031 56.0522 184.973 55.0492C192.005 51.4155 197.977 52.5683 202.38 55.199Z" fill="url(#paint11_linear_83_392)" stroke="#E8BE8A" stroke-width="4.51539" stroke-linecap="round"/>
<path fill-rule="evenodd" clip-rule="evenodd" d="M182.114 105.338C183.497 105.561 184.431 106.819 184.2 108.15C183.699 111.035 183.413 114.504 183.1 118.316C183.051 118.901 183.003 119.493 182.952 120.093C182.58 124.536 182.125 129.31 181.202 133.725C180.283 138.114 178.857 142.379 176.396 145.69C173.861 149.099 170.25 151.453 165.271 151.891C162.666 152.12 160.161 151.265 157.962 150.028C155.749 148.783 153.643 147.038 151.753 145.171C147.971 141.437 144.76 136.925 142.951 134.004C142.234 132.845 142.629 131.346 143.834 130.656C145.039 129.966 146.598 130.346 147.315 131.505C148.993 134.217 151.972 138.388 155.39 141.763C157.1 143.451 158.846 144.867 160.526 145.812C162.221 146.766 163.649 147.129 164.808 147.027C168.157 146.732 170.491 145.235 172.265 142.849C174.113 140.363 175.36 136.887 176.223 132.761C177.081 128.661 177.517 124.147 177.891 119.7C177.94 119.117 177.987 118.534 178.035 117.952C178.346 114.168 178.651 110.457 179.191 107.345C179.422 106.014 180.731 105.116 182.114 105.338Z" fill="url(#paint12_linear_83_392)" stroke="#E8BE8A" stroke-width="4.51539" stroke-linecap="round"/>
<path fill-rule="evenodd" clip-rule="evenodd" d="M238.176 86.9737C239.56 87.1959 240.494 88.4544 240.262 89.7849C239.761 92.6705 239.476 96.1387 239.161 99.9512C239.115 100.536 239.066 101.129 239.015 101.728C238.641 106.171 238.188 110.946 237.264 115.36C236.346 119.749 234.92 124.015 232.458 127.325C229.923 130.735 226.312 133.088 221.333 133.526C218.729 133.755 216.223 132.9 214.025 131.664C211.811 130.419 209.706 128.674 207.815 126.807C204.033 123.073 200.823 118.561 199.014 115.639C198.297 114.48 198.692 112.981 199.897 112.291C201.102 111.602 202.66 111.982 203.377 113.14C205.057 115.852 208.035 120.024 211.453 123.399C213.161 125.086 214.908 126.503 216.588 127.447C218.284 128.401 219.712 128.764 220.87 128.662C224.22 128.367 226.553 126.87 228.329 124.484C230.175 121.999 231.422 118.523 232.286 114.397C233.143 110.296 233.58 105.782 233.953 101.336C234.002 100.752 234.051 100.169 234.097 99.5872C234.408 95.8037 234.713 92.0926 235.253 88.98C235.485 87.6497 236.793 86.7514 238.176 86.9737Z" fill="url(#paint13_linear_83_392)" stroke="#E8BE8A" stroke-width="4.51539" stroke-linecap="round"/>
<path fill-rule="evenodd" clip-rule="evenodd" d="M200.733 78.6433C196.505 81.1691 193.815 84.98 192.728 86.7049C192.001 87.8582 192.384 89.36 193.583 90.0592C194.782 90.7585 196.343 90.3904 197.07 89.2371C198.015 87.7382 200.2 84.7112 203.411 82.7924C206.448 80.9784 210.48 80.0801 215.737 82.7961C216.866 83.3803 218.449 84.684 220.34 86.7719C222.192 88.8173 224.209 91.4659 226.239 94.5559C230.299 100.738 234.315 108.55 237.104 116.546C239.903 124.576 241.392 132.591 240.608 139.255C239.838 145.822 236.913 150.881 230.959 153.666C227.149 155.45 223.263 155.097 219.148 153.128C214.949 151.118 210.693 147.493 206.523 143.059C202.375 138.649 198.461 133.603 194.893 128.895C194.407 128.254 193.926 127.617 193.45 126.987C190.487 123.063 187.745 119.432 185.419 116.921C180.844 111.985 176.214 110.368 172.158 110.627C168.261 110.876 165.349 112.832 163.986 114.253C163.035 115.244 163.099 116.789 164.129 117.704C165.16 118.618 166.766 118.557 167.717 117.565C168.385 116.87 170.145 115.651 172.494 115.501C174.685 115.361 177.875 116.121 181.628 120.171C183.77 122.483 186.335 125.878 189.324 129.834C189.802 130.467 190.29 131.113 190.79 131.772C194.361 136.484 198.413 141.716 202.757 146.336C207.08 150.931 211.841 155.087 216.887 157.5C222.016 159.956 227.6 160.671 233.181 158.058C241.093 154.357 244.743 147.563 245.655 139.803C246.555 132.139 244.831 123.351 241.918 114.993C238.993 106.6 234.794 98.4365 230.533 91.9475C228.402 88.702 226.23 85.8408 224.169 83.5634C222.144 81.3285 220.082 79.4965 218.14 78.4935C211.108 74.8598 205.136 76.0127 200.733 78.6433Z" fill="url(#paint14_linear_83_392)" stroke="#E8BE8A" stroke-width="4.51539" stroke-linecap="round"/>
<path fill-rule="evenodd" clip-rule="evenodd" d="M210.09 107.737C215.243 112.082 219.422 118.661 221.341 124.656C221.756 125.945 221.004 127.311 219.663 127.709C218.323 128.106 216.903 127.383 216.489 126.094C214.821 120.887 211.128 115.108 206.743 111.41C202.312 107.674 197.961 106.603 194.244 108.798C192.417 109.877 191.628 111.647 191.633 114.6C191.639 117.357 192.34 120.581 193.131 124.217C193.218 124.62 193.307 125.028 193.396 125.441C194.25 129.404 195.12 133.804 194.76 137.808C194.386 141.963 192.665 145.888 188.275 148.542C181.023 152.927 172.354 152.513 165.856 147.1C159.439 141.754 155.564 131.92 156.562 118.171C156.66 116.825 157.873 115.811 159.272 115.905C160.671 115.999 161.726 117.166 161.628 118.511C160.697 131.333 164.379 139.408 169.181 143.408C173.902 147.341 180.112 147.709 185.573 144.407C188.292 142.763 189.427 140.424 189.701 137.387C189.988 134.2 189.296 130.479 188.424 126.432C188.334 126.018 188.243 125.599 188.151 125.177C187.381 121.656 186.562 117.904 186.555 114.609C186.548 110.81 187.625 106.975 191.587 104.635C198.128 100.772 204.982 103.43 210.09 107.737Z" fill="url(#paint15_linear_83_392)" stroke="#E8BE8A" stroke-width="4.51539" stroke-linecap="round"/>
<path fill-rule="evenodd" clip-rule="evenodd" d="M211.023 64.4375C179.747 55.3481 155.527 74.9414 136.295 92.0619C135.266 92.9782 133.66 92.9184 132.707 91.9285C131.754 90.9387 131.817 89.3936 132.846 88.4775C151.801 71.6033 178.116 49.7717 212.493 59.7621C227.246 64.0497 235.729 71.4824 242.206 80.8117C245.401 85.4162 248.105 90.473 250.823 95.7452C251.266 96.6041 251.71 97.469 252.155 98.3394C254.467 102.847 256.858 107.509 259.673 112.32C260.362 113.496 259.929 114.985 258.706 115.647C257.485 116.308 255.935 115.892 255.249 114.717C252.358 109.779 249.899 104.98 247.587 100.471C247.144 99.6083 246.708 98.7559 246.275 97.9152C243.559 92.6488 240.981 87.8427 237.981 83.5242C232.068 75.0077 224.504 68.3555 211.023 64.4375Z" fill="url(#paint16_linear_83_392)" stroke="#E8BE8A" stroke-width="4.51539" stroke-linecap="round"/>
<path fill-rule="evenodd" clip-rule="evenodd" d="M211.023 59.9439C179.747 50.8545 155.527 70.4478 136.295 87.5683C135.266 88.4846 133.66 88.4248 132.707 87.4348C131.754 86.4451 131.817 84.8999 132.846 83.9838C151.801 67.1097 178.116 45.278 212.493 55.2685C227.246 59.5561 235.729 66.9887 242.206 76.3181C245.401 80.9225 248.105 85.9793 250.823 91.2516C251.266 92.1104 251.71 92.9753 252.155 93.8457C254.467 98.3533 256.858 103.015 259.673 107.827C260.362 109.002 259.929 110.491 258.706 111.153C257.485 111.815 255.935 111.398 255.249 110.223C252.358 105.285 249.899 100.486 247.587 95.9778C247.144 95.1146 246.708 94.2622 246.275 93.4216C243.559 88.1552 240.981 83.3491 237.981 79.0306C232.068 70.514 224.504 63.8618 211.023 59.9439Z" fill="url(#paint17_linear_83_392)" stroke="#E8BE8A" stroke-width="4.51539" stroke-linecap="round"/>
<path fill-rule="evenodd" clip-rule="evenodd" d="M181.856 89.5674C187.009 93.9126 191.187 100.492 193.108 106.486C193.521 107.775 192.769 109.142 191.429 109.539C190.089 109.936 188.668 109.213 188.255 107.924C186.587 102.718 182.894 96.9383 178.508 93.2402C174.078 89.5041 169.726 88.4331 166.01 90.6281C164.183 91.7071 163.394 93.4771 163.399 96.4308C163.404 99.1874 164.105 102.412 164.896 106.047C164.984 106.45 165.073 106.858 165.162 107.271C166.016 111.235 166.886 115.634 166.526 119.639C166.152 123.794 164.43 127.719 160.041 130.373C152.789 134.758 144.12 134.344 137.622 128.931C131.205 123.585 127.329 113.75 128.328 100.001C128.426 98.656 129.639 97.6415 131.038 97.7354C132.436 97.8294 133.491 98.9962 133.394 100.342C132.463 113.163 136.145 121.239 140.947 125.239C145.667 129.172 151.877 129.54 157.338 126.238C160.058 124.594 161.193 122.255 161.466 119.218C161.753 116.03 161.062 112.309 160.189 108.263C160.1 107.848 160.008 107.43 159.916 107.008C159.147 103.486 158.327 99.7351 158.321 96.4396C158.314 92.6406 159.391 88.8058 163.353 86.4659C169.894 82.6024 176.748 85.2601 181.856 89.5674Z" fill="url(#paint18_linear_83_392)" stroke="#E8BE8A" stroke-width="4.51539" stroke-linecap="round"/>
<path fill-rule="evenodd" clip-rule="evenodd" d="M187.755 62.2322C191.983 64.758 194.672 68.5689 195.76 70.2938C196.487 71.4471 196.104 72.9489 194.905 73.6481C193.706 74.3473 192.144 73.9792 191.417 72.826C190.473 71.3271 188.287 68.3 185.076 66.3813C182.04 64.5673 178.008 63.669 172.751 66.385C171.621 66.9692 170.039 68.2729 168.148 70.3608C166.295 72.4061 164.278 75.0548 162.248 78.1447C158.188 84.3272 154.172 92.1385 151.385 100.134C148.585 108.165 147.097 116.18 147.879 122.844C148.65 129.411 151.576 134.47 157.528 137.255C161.339 139.039 165.226 138.686 169.34 136.717C173.539 134.707 177.795 131.082 181.965 126.648C186.112 122.238 190.026 117.192 193.595 112.484C194.081 111.843 194.562 111.206 195.037 110.576C198 106.652 200.742 103.021 203.069 100.51C207.645 95.5735 212.274 93.957 216.33 94.2161C220.226 94.465 223.139 96.4207 224.502 97.8414C225.452 98.8325 225.39 100.377 224.358 101.292C223.328 102.207 221.721 102.145 220.77 101.154C220.102 100.459 218.343 99.2397 215.993 99.0896C213.803 98.9497 210.612 99.7099 206.86 103.76C204.717 106.072 202.153 109.467 199.164 113.423C198.686 114.056 198.198 114.702 197.698 115.361C194.127 120.073 190.075 125.305 185.731 129.925C181.408 134.52 176.646 138.675 171.602 141.089C166.472 143.545 160.889 144.259 155.306 141.647C147.395 137.945 143.744 131.152 142.833 123.392C141.933 115.728 143.656 106.94 146.57 98.5818C149.496 90.1889 153.693 82.0254 157.955 75.5363C160.086 72.2909 162.256 69.4297 164.319 67.1522C166.344 64.9174 168.406 63.0854 170.348 62.0824C177.38 58.4487 183.352 59.6016 187.755 62.2322Z" fill="url(#paint19_linear_83_392)" stroke="#E8BE8A" stroke-width="4.51539" stroke-linecap="round"/>
<path fill-rule="evenodd" clip-rule="evenodd" d="M187.341 99.336C192.493 103.681 196.672 110.26 198.592 116.255C199.005 117.544 198.253 118.911 196.913 119.308C195.573 119.705 194.152 118.982 193.739 117.693C192.071 112.486 188.378 106.707 183.993 103.009C179.562 99.2727 175.211 98.2016 171.494 100.397C169.667 101.476 168.878 103.246 168.883 106.199C168.889 108.956 169.59 112.18 170.381 115.816C170.468 116.219 170.557 116.627 170.646 117.04C171.5 121.003 172.37 125.403 172.01 129.407C171.636 133.562 169.915 137.487 165.525 140.142C158.273 144.526 149.604 144.113 143.106 138.699C136.689 133.353 132.814 123.519 133.812 109.77C133.91 108.425 135.123 107.41 136.522 107.504C137.921 107.598 138.976 108.765 138.878 110.11C137.947 122.932 141.629 131.007 146.431 135.007C151.152 138.94 157.362 139.308 162.823 136.006C165.542 134.362 166.677 132.023 166.951 128.986C167.238 125.799 166.546 122.078 165.674 118.031C165.584 117.617 165.493 117.198 165.401 116.776C164.631 113.255 163.812 109.504 163.805 106.208C163.798 102.409 164.875 98.5744 168.837 96.2345C175.378 92.371 182.233 95.0286 187.341 99.336Z" fill="url(#paint20_linear_83_392)" stroke="#E8BE8A" stroke-width="4.51539" stroke-linecap="round"/>
<path fill-rule="evenodd" clip-rule="evenodd" d="M236.496 78.2359C241.65 82.5811 245.828 89.16 247.747 95.1545C248.162 96.4436 247.41 97.8104 246.07 98.2076C244.729 98.6048 243.309 97.8819 242.895 96.5929C241.227 91.3862 237.534 85.6068 233.149 81.9086C228.719 78.1726 224.368 77.1015 220.651 79.2965C218.825 80.3756 218.034 82.1456 218.04 85.0992C218.045 87.8559 218.745 91.0801 219.537 94.7159C219.625 95.1188 219.714 95.5267 219.802 95.9395C220.657 99.9032 221.526 104.303 221.167 108.307C220.793 112.462 219.07 116.387 214.681 119.041C207.429 123.426 198.76 123.012 192.262 117.599C185.846 112.253 181.97 102.419 182.968 88.6698C183.066 87.3245 184.279 86.3099 185.678 86.4039C187.077 86.4979 188.132 87.6646 188.034 89.0101C187.103 101.832 190.786 109.907 195.587 113.907C200.308 117.84 206.517 118.208 211.979 114.906C214.699 113.262 215.835 110.923 216.107 107.886C216.393 104.699 215.702 100.978 214.829 96.931C214.74 96.5169 214.648 96.0982 214.557 95.6764C213.787 92.1546 212.968 88.4035 212.962 85.108C212.954 81.309 214.031 77.4743 217.994 75.1344C224.534 71.2709 231.388 73.9285 236.496 78.2359Z" fill="url(#paint21_linear_83_392)" stroke="#E8BE8A" stroke-width="4.51539" stroke-linecap="round"/>
<path fill-rule="evenodd" clip-rule="evenodd" d="M223.031 76.2178C220.693 78.2147 218.292 80.2635 215.918 82.1151C210.086 86.6643 203.82 89.6798 198.326 91.0816C195.58 91.7824 192.968 92.095 190.662 91.9596C188.386 91.8257 186.221 91.2428 184.56 89.9562C183.545 89.1693 183.322 87.6563 184.062 86.5769C184.802 85.4975 186.226 85.2603 187.241 86.0473C187.932 86.5828 189.125 87.0243 190.913 87.1294C192.672 87.2328 194.831 86.9985 197.264 86.3778C202.127 85.1367 207.846 82.4118 213.226 78.2149C215.524 76.4233 217.782 74.4942 220.072 72.5388C221.24 71.541 222.418 70.5364 223.61 69.5397C227.075 66.6464 230.632 63.8681 234.189 61.9333C237.744 59.9991 241.512 58.7884 245.349 59.3247C249.253 59.8706 252.848 62.1693 256.116 66.4505C262.279 74.5245 264.32 83.2144 263.473 91.6741C262.632 100.063 258.972 108.075 253.981 114.991C248.982 121.916 242.566 127.862 236.019 132.131C229.509 136.375 222.672 139.091 216.826 139.277C206.71 139.6 200.644 136.322 197.204 131.636C193.862 127.082 193.364 123.632 193.364 120.431C193.364 119.095 194.383 118.012 195.64 118.012C196.897 118.012 197.915 119.095 197.915 120.431C197.915 123.228 198.376 125.368 200.792 128.66C203.111 131.819 207.604 134.732 216.688 134.442C221.447 134.29 227.5 132.011 233.638 128.008C239.74 124.029 245.732 118.473 250.37 112.047C255.015 105.612 258.221 98.422 258.948 91.1621C259.669 83.9726 257.977 76.5661 252.582 69.4986C249.862 65.9351 247.242 64.4686 244.755 64.1209C242.2 63.7637 239.401 64.5315 236.263 66.2395C233.122 67.947 229.858 70.4749 226.421 73.3437C225.314 74.2696 224.179 75.2374 223.031 76.2178Z" fill="url(#paint22_linear_83_392)" stroke="#E8BE8A" stroke-width="4.51539" stroke-linecap="round"/>
<path fill-rule="evenodd" clip-rule="evenodd" d="M203.503 53.1164C199.112 51.0958 194.043 50.8219 189.405 53.7691C182.64 58.0669 179.123 65.9731 177.867 74.8865C176.617 83.7526 177.687 93.1241 179.583 99.6219C179.962 100.921 179.175 102.269 177.824 102.633C176.474 102.997 175.073 102.24 174.694 100.941C172.628 93.8605 171.484 83.8157 172.834 74.2306C174.178 64.693 178.075 55.1134 186.606 49.6937C193.037 45.6075 200.055 46.1153 205.695 48.7104C211.238 51.2621 215.763 55.9604 217.433 60.8335C217.872 62.1145 217.147 63.4952 215.816 63.9172C214.484 64.3392 213.048 63.6429 212.609 62.3619C211.435 58.9318 207.988 55.1805 203.503 53.1164Z" fill="url(#paint23_linear_83_392)" stroke="#E8BE8A" stroke-width="4.51539" stroke-linecap="round"/>
<path fill-rule="evenodd" clip-rule="evenodd" d="M168.458 56.1756C172.686 58.7013 175.375 62.5122 176.463 64.2371C177.19 65.3904 176.807 66.8922 175.608 67.5915C174.409 68.2907 172.848 67.9226 172.12 66.7693C171.176 65.2705 168.99 62.2434 165.779 60.3247C162.743 58.5106 158.711 57.6123 153.454 60.3284C152.324 60.9125 150.743 62.2162 148.851 64.3041C146.999 66.3495 144.981 68.9981 142.951 72.0881C138.891 78.2706 134.875 86.0819 132.088 94.0778C129.288 102.109 127.8 110.123 128.582 116.787C129.353 123.354 132.279 128.413 138.231 131.198C142.042 132.982 145.929 132.629 150.043 130.66C154.242 128.65 158.498 125.025 162.668 120.591C166.815 116.181 170.73 111.135 174.298 106.428C174.784 105.786 175.265 105.149 175.74 104.519C178.703 100.595 181.445 96.964 183.772 94.4535C188.347 89.5169 192.977 87.9004 197.033 88.1595C200.93 88.4084 203.842 90.364 205.205 91.7848C206.156 92.7759 206.093 94.3209 205.061 95.2358C204.031 96.1505 202.425 96.0888 201.474 95.0976C200.806 94.4019 199.045 93.183 196.696 93.033C194.506 92.8931 191.316 93.6533 187.563 97.7035C185.42 100.015 182.856 103.41 179.867 107.367C179.389 107.999 178.901 108.646 178.401 109.305C174.83 114.017 170.778 119.249 166.434 123.868C162.112 128.463 157.349 132.619 152.305 135.033C147.175 137.488 141.592 138.203 136.009 135.59C128.098 131.889 124.447 125.096 123.536 117.335C122.636 109.672 124.36 100.883 127.273 92.5252C130.199 84.1323 134.396 75.9687 138.658 69.4797C140.79 66.2342 142.96 63.373 145.023 61.0956C147.047 58.8607 149.109 57.0288 151.051 56.0257C158.083 52.392 164.055 53.5449 168.458 56.1756Z" fill="url(#paint24_linear_83_392)" stroke="#E8BE8A" stroke-width="4.51539" stroke-linecap="round"/>
<path fill-rule="evenodd" clip-rule="evenodd" d="M170.12 57.1107C169.427 55.9385 167.876 55.529 166.658 56.196C161.172 59.1986 154.168 65.1574 149.57 71.7043C147.266 74.9837 145.453 78.568 144.835 82.1329C144.205 85.7655 144.815 89.4482 147.457 92.5813C149.03 94.4471 150.866 95.6744 152.981 96.0957C155.079 96.5136 157.088 96.066 158.878 95.2575C162.316 93.7045 165.666 90.4684 168.643 87.4312C169.233 86.83 169.811 86.2328 170.38 85.6451C172.85 83.0942 175.14 80.7278 177.363 79.0474C180.194 76.9072 181.831 76.7016 182.984 77.2833C185.23 78.4154 186.165 79.615 186.47 80.6251C186.77 81.6205 186.624 82.9881 185.454 84.8185C183.04 88.594 176.936 93.2265 166.847 97.7161C156.034 102.528 145.898 113.221 143.521 125.088C142.316 131.103 143.112 137.429 146.85 143.322C150.57 149.185 157.069 154.415 166.899 158.535C181.593 164.695 199.734 165.249 218.002 156.207C236.226 147.186 254.361 128.729 269.445 97.2425C270.032 96.0175 269.476 94.5669 268.202 94.0025C266.929 93.4378 265.421 93.9734 264.834 95.1983C250.059 126.035 232.594 143.491 215.678 151.864C198.803 160.217 182.261 159.647 168.928 154.058C159.765 150.217 154.217 145.556 151.186 140.778C148.173 136.03 147.516 130.963 148.507 126.012C150.523 115.949 159.379 106.421 168.979 102.149C179.305 97.5537 186.556 92.4176 189.779 87.3771C191.427 84.7993 192.17 81.997 191.347 79.2651C190.528 76.5479 188.328 74.4627 185.342 72.9574C181.265 70.9017 177.253 72.9185 174.225 75.2074C171.66 77.1471 169.022 79.8745 166.544 82.4381C166.004 82.9967 165.471 83.5474 164.949 84.0806C161.857 87.2341 159.14 89.743 156.719 90.8367C155.579 91.3517 154.712 91.4527 154.011 91.313C153.327 91.1768 152.443 90.7404 151.401 89.5046C149.858 87.6754 149.401 85.4906 149.844 82.9369C150.298 80.3158 151.7 77.3954 153.777 74.4387C157.94 68.5127 164.363 63.0714 169.169 60.441C170.388 59.774 170.814 58.2829 170.12 57.1107Z" fill="url(#paint25_linear_83_392)" stroke="#E8BE8A" stroke-width="4.51539" stroke-linecap="round"/>
<path fill-rule="evenodd" clip-rule="evenodd" d="M239.291 108.66C240.742 108.882 241.721 110.143 241.479 111.475C240.953 114.365 240.654 117.839 240.325 121.657C240.275 122.242 240.224 122.836 240.171 123.437C239.779 127.886 239.304 132.668 238.335 137.089C237.372 141.484 235.875 145.757 233.295 149.072C230.636 152.487 226.848 154.844 221.626 155.282C218.896 155.512 216.267 154.655 213.962 153.417C211.64 152.17 209.432 150.423 207.45 148.553C203.482 144.813 200.116 140.294 198.219 137.368C197.467 136.208 197.881 134.707 199.145 134.016C200.408 133.325 202.043 133.705 202.795 134.866C204.555 137.582 207.679 141.759 211.264 145.14C213.058 146.83 214.888 148.248 216.651 149.194C218.428 150.149 219.925 150.513 221.142 150.411C224.654 150.116 227.102 148.617 228.962 146.227C230.9 143.737 232.208 140.256 233.112 136.124C234.012 132.017 234.471 127.497 234.861 123.043C234.912 122.459 234.963 121.875 235.014 121.292C235.339 117.503 235.66 113.786 236.226 110.669C236.468 109.337 237.841 108.437 239.291 108.66Z" fill="url(#paint26_linear_83_392)" stroke="#E8BE8A" stroke-width="4.51539" stroke-linecap="round"/>
<path fill-rule="evenodd" clip-rule="evenodd" d="M205.02 69.2654C209.249 71.7912 211.939 75.6021 213.025 77.327C213.752 78.4803 213.371 79.9821 212.17 80.6813C210.972 81.3805 209.41 81.0124 208.682 79.8592C207.738 78.3603 205.552 75.3332 202.341 73.4145C199.305 71.6005 195.273 70.7022 190.017 73.4182C188.886 74.0024 187.305 75.3061 185.414 77.394C183.561 79.4393 181.543 82.088 179.514 85.1779C175.453 91.3604 171.437 99.1717 168.65 107.168C165.851 115.199 164.362 123.213 165.145 129.877C165.916 136.444 168.841 141.503 174.793 144.288C178.605 146.072 182.491 145.719 186.605 143.75C190.805 141.74 195.061 138.115 199.23 133.681C203.379 129.271 207.293 124.225 210.86 119.517C211.345 118.876 211.827 118.239 212.302 117.609C215.266 113.685 218.008 110.054 220.334 107.543C224.91 102.607 229.539 100.99 233.596 101.249C237.492 101.498 240.405 103.454 241.767 104.875C242.718 105.866 242.655 107.411 241.623 108.326C240.593 109.24 238.987 109.179 238.036 108.187C237.368 107.492 235.609 106.273 233.259 106.123C231.069 105.983 227.878 106.743 224.126 110.793C221.983 113.105 219.418 116.5 216.43 120.456C215.952 121.089 215.463 121.735 214.963 122.394C211.392 127.106 207.342 132.338 202.996 136.958C198.674 141.553 193.912 145.709 188.867 148.123C183.738 150.578 178.154 151.293 172.572 148.68C164.661 144.979 161.01 138.185 160.099 130.425C159.199 122.762 160.922 113.973 163.836 105.615C166.761 97.2221 170.959 89.0586 175.221 82.5695C177.352 79.3241 179.522 76.4629 181.585 74.1854C183.609 71.9506 185.672 70.1186 187.614 69.1156C194.646 65.4819 200.618 66.6348 205.02 69.2654Z" fill="url(#paint27_linear_83_392)" stroke="#E8BE8A" stroke-width="4.51539" stroke-linecap="round"/>
<path fill-rule="evenodd" clip-rule="evenodd" d="M229.763 59.846C230.455 58.6738 232.007 58.2643 233.226 58.9313C238.71 61.934 245.714 67.8927 250.313 74.4396C252.616 77.7191 254.43 81.3034 255.048 84.8683C255.677 88.5008 255.068 92.1835 252.425 95.3167C250.853 97.1825 249.017 98.4098 246.902 98.831C244.804 99.2489 242.795 98.8013 241.006 97.9929C237.567 96.4399 234.215 93.2038 231.24 90.1665C230.65 89.5654 230.072 88.9681 229.503 88.3805C227.033 85.8295 224.742 83.4632 222.519 81.7828C219.688 79.6425 218.053 79.437 216.899 80.0186C214.652 81.1508 213.718 82.3504 213.413 83.3604C213.113 84.3558 213.259 85.7234 214.429 87.5538C216.842 91.3294 222.948 95.9618 233.035 100.451C243.85 105.263 253.985 115.956 256.362 127.824C257.567 133.838 256.77 140.164 253.033 146.057C249.314 151.92 242.814 157.15 232.984 161.271C218.29 167.43 200.148 167.984 181.881 158.942C163.656 149.921 145.522 131.464 130.437 99.9778C129.85 98.7529 130.407 97.3022 131.68 96.7378C132.954 96.1732 134.462 96.7087 135.049 97.9337C149.823 128.771 167.288 146.226 184.205 154.599C201.079 162.952 217.622 162.383 230.955 156.793C240.118 152.953 245.665 148.292 248.698 143.513C251.708 138.765 252.367 133.698 251.375 128.748C249.36 118.685 240.504 109.157 230.902 104.884C220.577 100.289 213.326 95.153 210.104 90.1124C208.455 87.5347 207.712 84.7323 208.536 82.0004C209.355 79.2832 211.555 77.198 214.541 75.6927C218.617 73.637 222.629 75.6538 225.658 77.9428C228.223 79.8824 230.86 82.6098 233.34 85.1735C233.878 85.732 234.412 86.2828 234.934 86.8159C238.026 89.9694 240.744 92.4784 243.163 93.572C244.305 94.087 245.172 94.188 245.873 94.0483C246.555 93.9122 247.441 93.4757 248.481 92.24C250.025 90.4107 250.482 88.2259 250.039 85.6722C249.584 83.0511 248.182 80.1307 246.106 77.174C241.942 71.248 235.519 65.8068 230.713 63.1763C229.495 62.5093 229.068 61.0183 229.763 59.846Z" fill="url(#paint28_linear_83_392)" stroke="#E8BE8A" stroke-width="4.51539" stroke-linecap="round"/>
<path fill-rule="evenodd" clip-rule="evenodd" d="M201.595 73.4519C198.985 75.4682 196.307 77.5368 193.659 79.4062C187.15 83.9994 180.158 87.0441 174.029 88.4595C170.965 89.167 168.05 89.4827 165.477 89.3459C162.937 89.2109 160.521 88.6223 158.668 87.3232C157.535 86.5287 157.286 85.0011 158.113 83.9111C158.939 82.8213 160.527 82.5818 161.66 83.3764C162.431 83.9172 163.762 84.363 165.757 84.4691C167.72 84.5734 170.129 84.337 172.843 83.7103C178.27 82.4572 184.65 79.7058 190.654 75.4684C193.218 73.6592 195.738 71.7116 198.293 69.7372C199.597 68.7298 200.91 67.7155 202.242 66.7091C206.107 63.7878 210.076 60.9824 214.045 59.0291C218.012 57.076 222.217 55.8538 226.497 56.3953C230.852 56.9463 234.863 59.2673 238.511 63.59C245.389 71.7421 247.666 80.5161 246.722 89.0577C245.783 97.5282 241.698 105.617 236.129 112.601C230.551 119.593 223.393 125.596 216.086 129.906C208.823 134.192 201.194 136.933 194.67 137.122C183.383 137.448 176.615 134.137 172.777 129.406C169.048 124.809 168.492 119.353 168.492 116.12C168.492 114.772 169.629 113.678 171.031 113.678C172.434 113.678 173.571 114.772 173.571 116.12C173.571 118.945 174.084 123.078 176.781 126.402C179.368 129.591 184.381 132.533 194.518 132.24C199.826 132.086 206.58 129.785 213.432 125.743C220.24 121.726 226.923 116.117 232.101 109.628C237.283 103.131 240.86 95.8711 241.672 88.5408C242.474 81.2818 240.587 73.8034 234.567 66.6677C231.532 63.0696 228.609 61.5889 225.834 61.2378C222.985 60.8773 219.86 61.6526 216.359 63.3769C212.857 65.101 209.213 67.6534 205.378 70.5499C204.141 71.4848 202.876 72.462 201.595 73.4519Z" fill="url(#paint29_linear_83_392)" stroke="#E8BE8A" stroke-width="4.51539" stroke-linecap="round"/>
<path fill-rule="evenodd" clip-rule="evenodd" d="M180.752 82.0314C176.362 80.0109 171.293 79.737 166.655 82.6841C159.89 86.9819 156.373 94.8882 155.117 103.802C153.867 112.668 154.937 122.039 156.833 128.537C157.212 129.836 156.425 131.184 155.074 131.548C153.724 131.912 152.323 131.155 151.944 129.857C149.878 122.776 148.734 112.731 150.084 103.146C151.428 93.6081 155.325 84.0285 163.856 78.6087C170.287 74.5225 177.305 75.0303 182.944 77.6254C188.488 80.1771 193.013 84.8754 194.683 89.7485C195.121 91.0296 194.398 92.4103 193.066 92.8323C191.734 93.2543 190.298 92.558 189.86 91.2769C188.685 87.8468 185.237 84.0955 180.752 82.0314Z" fill="url(#paint30_linear_83_392)" stroke="#E8BE8A" stroke-width="4.51539" stroke-linecap="round"/>
<path fill-rule="evenodd" clip-rule="evenodd" d="M182.174 112.704C177.784 110.684 172.715 110.41 168.076 113.357C161.312 117.655 157.794 125.561 156.538 134.474C155.289 143.34 156.359 152.712 158.255 159.21C158.634 160.508 157.846 161.857 156.496 162.221C155.146 162.585 153.744 161.828 153.366 160.529C151.3 153.448 150.156 143.404 151.506 133.819C152.85 124.281 156.747 114.701 165.278 109.282C171.709 105.195 178.726 105.703 184.366 108.298C189.91 110.85 194.435 115.548 196.105 120.421C196.543 121.702 195.819 123.083 194.488 123.505C193.156 123.927 191.72 123.231 191.281 121.95C190.107 118.52 186.659 114.768 182.174 112.704Z" fill="url(#paint31_linear_83_392)" stroke="#E8BE8A" stroke-width="4.51539" stroke-linecap="round"/>
<path fill-rule="evenodd" clip-rule="evenodd" d="M205.979 81.3077C207.429 81.5303 208.408 82.7908 208.167 84.1232C207.64 87.0131 207.342 90.4866 207.013 94.3049C206.962 94.8903 206.911 95.484 206.858 96.0848C206.466 100.534 205.991 105.316 205.022 109.737C204.059 114.132 202.563 118.404 199.982 121.72C197.324 125.135 193.536 127.492 188.314 127.93C185.583 128.16 182.955 127.303 180.649 126.065C178.328 124.818 176.12 123.07 174.137 121.201C170.171 117.461 166.803 112.942 164.906 110.016C164.154 108.856 164.569 107.355 165.832 106.664C167.096 105.973 168.73 106.353 169.483 107.514C171.243 110.23 174.367 114.407 177.952 117.788C179.744 119.478 181.576 120.896 183.338 121.842C185.116 122.797 186.613 123.161 187.829 123.059C191.341 122.764 193.789 121.264 195.65 118.875C197.588 116.385 198.895 112.904 199.8 108.772C200.7 104.665 201.158 100.145 201.549 95.6913C201.601 95.1071 201.651 94.523 201.701 93.9404C202.027 90.151 202.346 86.4344 202.913 83.3171C203.155 81.9849 204.529 81.0852 205.979 81.3077Z" fill="url(#paint32_linear_83_392)" stroke="#E8BE8A" stroke-width="4.51539" stroke-linecap="round"/>
<path d="M245.984 111.637C245.984 138.536 226.356 150.045 195.163 150.045C162.261 150.045 143.203 136.374 143.203 109.475C143.203 82.5765 167.706 60.5649 192.318 60.5649C216.929 60.5649 245.984 84.7387 245.984 111.637Z" fill="url(#paint33_radial_83_392)"/>
<path fill-rule="evenodd" clip-rule="evenodd" d="M189.922 71.1147C190.819 71.1147 191.547 70.4149 191.547 69.5517C191.547 68.6886 190.819 67.9888 189.922 67.9888C189.024 67.9888 188.297 68.6886 188.297 69.5517C188.297 70.4149 189.024 71.1147 189.922 71.1147ZM202.312 76.9758C203.21 76.9758 203.938 76.276 203.938 75.4128C203.938 74.5497 203.21 73.8499 202.312 73.8499C201.415 73.8499 200.688 74.5497 200.688 75.4128C200.688 76.276 201.415 76.9758 202.312 76.9758ZM179.156 83.6184C180.054 83.6184 180.781 82.9186 180.781 82.0554C180.781 81.1923 180.054 80.4925 179.156 80.4925C178.259 80.4925 177.531 81.1923 177.531 82.0554C177.531 82.9186 178.259 83.6184 179.156 83.6184ZM176.516 89.0888C177.413 89.0888 178.141 88.389 178.141 87.5258C178.141 86.6627 177.413 85.9628 176.516 85.9628C175.618 85.9628 174.891 86.6627 174.891 87.5258C174.891 88.389 175.618 89.0888 176.516 89.0888ZM196.625 95.9267C196.625 96.7899 195.897 97.4897 195 97.4897C194.103 97.4897 193.375 96.7899 193.375 95.9267C193.375 95.0636 194.103 94.3638 195 94.3638C195.897 94.3638 196.625 95.0636 196.625 95.9267ZM170.625 120.934C171.522 120.934 172.25 120.234 172.25 119.371C172.25 118.508 171.522 117.808 170.625 117.808C169.728 117.808 169 118.508 169 119.371C169 120.234 169.728 120.934 170.625 120.934ZM193.375 116.05C193.375 116.913 192.647 117.613 191.75 117.613C190.853 117.613 190.125 116.913 190.125 116.05C190.125 115.187 190.853 114.487 191.75 114.487C192.647 114.487 193.375 115.187 193.375 116.05ZM217.547 120.739C218.445 120.739 219.172 120.039 219.172 119.176C219.172 118.313 218.445 117.613 217.547 117.613C216.649 117.613 215.922 118.313 215.922 119.176C215.922 120.039 216.649 120.739 217.547 120.739ZM230.344 104.328C230.344 105.191 229.617 105.891 228.719 105.891C227.821 105.891 227.094 105.191 227.094 104.328C227.094 103.465 227.821 102.765 228.719 102.765C229.617 102.765 230.344 103.465 230.344 104.328ZM182.812 134.61C182.812 135.473 182.085 136.173 181.188 136.173C180.29 136.173 179.562 135.473 179.562 134.61C179.562 133.747 180.29 133.047 181.188 133.047C182.085 133.047 182.812 133.747 182.812 134.61ZM215.922 136.173C216.82 136.173 217.547 135.473 217.547 134.61C217.547 133.747 216.82 133.047 215.922 133.047C215.024 133.047 214.297 133.747 214.297 134.61C214.297 135.473 215.024 136.173 215.922 136.173ZM154.172 116.05C154.172 116.913 153.444 117.613 152.547 117.613C151.649 117.613 150.922 116.913 150.922 116.05C150.922 115.187 151.649 114.487 152.547 114.487C153.444 114.487 154.172 115.187 154.172 116.05Z" fill="#E44155"/>
<path fill-rule="evenodd" clip-rule="evenodd" d="M190.814 80.7292C191.611 80.7292 192.257 80.1078 192.257 79.3409C192.257 78.5741 191.611 77.9526 190.814 77.9526C190.018 77.9526 189.372 78.5741 189.372 79.3409C189.372 80.1078 190.018 80.7292 190.814 80.7292ZM201.811 85.9355C202.607 85.9355 203.253 85.3138 203.253 84.5472C203.253 83.7803 202.607 83.1589 201.811 83.1589C201.014 83.1589 200.369 83.7803 200.369 84.5472C200.369 85.3138 201.014 85.9355 201.811 85.9355ZM181.26 91.8357C182.057 91.8357 182.702 91.2142 182.702 90.4474C182.702 89.6807 182.057 89.0591 181.26 89.0591C180.464 89.0591 179.818 89.6807 179.818 90.4474C179.818 91.2142 180.464 91.8357 181.26 91.8357ZM178.917 96.6947C179.713 96.6947 180.359 96.0732 180.359 95.3064C180.359 94.5398 179.713 93.9181 178.917 93.9181C178.12 93.9181 177.475 94.5398 177.475 95.3064C177.475 96.0732 178.12 96.6947 178.917 96.6947ZM196.763 102.769C196.763 103.535 196.118 104.157 195.321 104.157C194.524 104.157 193.879 103.535 193.879 102.769C193.879 102.002 194.524 101.38 195.321 101.38C196.118 101.38 196.763 102.002 196.763 102.769ZM173.689 124.981C174.485 124.981 175.131 124.36 175.131 123.593C175.131 122.826 174.485 122.205 173.689 122.205C172.892 122.205 172.247 122.826 172.247 123.593C172.247 124.36 172.892 124.981 173.689 124.981ZM193.879 120.643C193.879 121.41 193.233 122.031 192.437 122.031C191.64 122.031 190.995 121.41 190.995 120.643C190.995 119.876 191.64 119.255 192.437 119.255C193.233 119.255 193.879 119.876 193.879 120.643ZM215.331 124.808C216.127 124.808 216.773 124.186 216.773 123.42C216.773 122.653 216.127 122.031 215.331 122.031C214.535 122.031 213.889 122.653 213.889 123.42C213.889 124.186 214.535 124.808 215.331 124.808ZM226.688 110.231C226.688 110.997 226.042 111.619 225.245 111.619C224.449 111.619 223.803 110.997 223.803 110.231C223.803 109.464 224.449 108.842 225.245 108.842C226.042 108.842 226.688 109.464 226.688 110.231ZM184.505 137.129C184.505 137.896 183.859 138.517 183.063 138.517C182.266 138.517 181.621 137.896 181.621 137.129C181.621 136.362 182.266 135.741 183.063 135.741C183.859 135.741 184.505 136.362 184.505 137.129ZM213.889 138.517C214.685 138.517 215.331 137.896 215.331 137.129C215.331 136.362 214.685 135.741 213.889 135.741C213.092 135.741 212.446 136.362 212.446 137.129C212.446 137.896 213.092 138.517 213.889 138.517ZM159.087 120.643C159.087 121.41 158.442 122.031 157.645 122.031C156.849 122.031 156.203 121.41 156.203 120.643C156.203 119.876 156.849 119.255 157.645 119.255C158.442 119.255 159.087 119.876 159.087 120.643Z" fill="#E47B59"/>
<path d="M185.003 102.3L181.387 106.394C175.838 112.675 166.046 113.44 159.516 108.103L155.26 104.624L158.877 100.53C164.426 94.2496 174.217 93.4847 180.747 98.8216L185.003 102.3Z" fill="url(#paint34_linear_83_392)"/>
<path opacity="0.5" fill-rule="evenodd" clip-rule="evenodd" d="M155.69 104.137L184.797 102.132L185.003 102.301L181.386 106.395C175.838 112.675 166.046 113.44 159.516 108.103L155.26 104.624L155.69 104.137Z" fill="#529D6A"/>
<path d="M195.671 138.909L194.102 133.753C191.697 125.843 196.413 117.554 204.638 115.24L209.999 113.732L211.567 118.888C213.972 126.799 209.255 135.087 201.031 137.401L195.671 138.909Z" fill="url(#paint35_linear_83_392)"/>
<path opacity="0.5" fill-rule="evenodd" clip-rule="evenodd" d="M210.186 114.345L195.93 138.836L195.671 138.909L194.103 133.753C191.697 125.843 196.414 117.554 204.638 115.24L209.999 113.732L210.186 114.345Z" fill="#529D6A"/>
<path d="M206.332 75.8643L211.847 76.7165C220.307 78.0239 226.064 85.6806 224.705 93.8182L223.819 99.1225L218.305 98.2701C209.842 96.9627 204.086 89.3059 205.447 81.1686L206.332 75.8643Z" fill="url(#paint36_linear_83_392)"/>
<path opacity="0.5" fill-rule="evenodd" clip-rule="evenodd" d="M223.161 99.0211L206.29 76.1208L206.332 75.8643L211.847 76.7165C220.307 78.0239 226.064 85.6806 224.705 93.818L223.817 99.1223L223.161 99.0211Z" fill="#529D6A"/>
<path fill-rule="evenodd" clip-rule="evenodd" d="M320.647 55.338L302.756 43.0389L303.272 42.3457L321.163 54.6447C323.751 56.4239 326.154 58.4016 328.356 60.5497L327.019 52.1189L327.894 51.9904L329.422 61.6188C337.263 69.7069 342.341 80.0264 343.789 91.174L343.945 92.3816L348.822 78.6901L349.659 78.9661L344.195 94.3084L347.571 120.286L354.484 111.233L355.197 111.737L347.679 121.586L340.795 148.217L339.936 148.012L346.82 121.375L343.815 98.2552L335.965 95.7473L336.245 94.9386L343.694 97.3184L342.91 91.2797C341.636 81.4817 337.512 72.3339 331.149 64.8203L331.212 65.4172L318.242 66.6826L318.153 65.8347L330.949 64.5863C330.401 63.9474 329.838 63.3205 329.257 62.7062L328.711 62.7865L328.587 62.0088C326.19 59.561 323.535 57.3238 320.647 55.338Z" fill="#C14752"/>
<path d="M277.822 38.5655L283.142 35.5179C291.304 30.8427 302.211 33.942 307.507 42.4406L310.958 47.9806L305.638 51.0281C297.477 55.7034 286.569 52.604 281.273 44.1054L277.822 38.5655Z" fill="url(#paint37_linear_83_392)"/>
<path opacity="0.5" fill-rule="evenodd" clip-rule="evenodd" d="M310.324 48.3434L277.989 38.8339L277.822 38.5661L283.142 35.5185C291.304 30.8431 302.211 33.9425 307.507 42.4411L310.958 47.981L310.324 48.3434Z" fill="#529D6A"/>
<path d="M327.813 57.1863L323.089 52.6394C315.839 45.6637 315.222 34.545 321.709 27.8051L325.938 23.4116L330.663 27.9585C337.913 34.9342 338.53 46.0529 332.042 52.7928L327.813 57.1863Z" fill="url(#paint38_linear_83_392)"/>
<path opacity="0.5" fill-rule="evenodd" clip-rule="evenodd" d="M326.501 23.9526L328.018 56.9739L327.813 57.1863L323.089 52.6394C315.839 45.6637 315.222 34.5452 321.709 27.8051L325.938 23.4116L326.501 23.9526Z" fill="#529D6A"/>
<path d="M328.705 65.3373L323.787 60.9997C316.245 54.3452 305.151 54.6718 299.006 61.729L295.003 66.3292L299.92 70.6668C307.462 77.3213 318.557 76.9947 324.699 69.9375L328.705 65.3373Z" fill="url(#paint39_linear_83_392)"/>
<path opacity="0.5" fill-rule="evenodd" clip-rule="evenodd" d="M295.588 66.8447L328.51 65.5593L328.705 65.3368L323.787 60.9992C316.245 54.3447 305.151 54.6713 299.006 61.7285L295.003 66.3289L295.588 66.8447Z" fill="#529D6A"/>
<path d="M341.807 96.8228L338.599 91.1514C333.678 82.4506 322.885 78.873 314.494 83.1605L309.024 85.9555L312.232 91.6269C317.153 100.328 327.945 103.905 336.336 99.6176L341.807 96.8228Z" fill="url(#paint40_linear_83_392)"/>
<path opacity="0.5" fill-rule="evenodd" clip-rule="evenodd" d="M309.406 86.63L341.543 96.9578L341.807 96.8226L338.599 91.1512C333.678 82.4504 322.885 78.873 314.494 83.1606L309.024 85.9554L309.406 86.63Z" fill="#529D6A"/>
<path d="M346.678 86.5273L342.964 81.1476C337.267 72.8944 339.04 62.0724 346.925 56.9762L352.064 53.6543L355.78 59.034C361.477 67.2872 359.704 78.1092 351.819 83.2054L346.678 86.5273Z" fill="url(#paint41_linear_83_392)"/>
<path opacity="0.5" fill-rule="evenodd" clip-rule="evenodd" d="M352.507 54.2948L346.927 86.3672L346.678 86.5278L342.964 81.1481C337.267 72.8949 339.04 62.0729 346.925 56.9769L352.064 53.6548L352.507 54.2948Z" fill="#529D6A"/>
<path d="M350.064 118.138L348.008 112.024C344.855 102.644 349.759 93.0375 358.963 90.5667L364.961 88.9561L367.016 95.0702C370.169 104.45 365.265 114.057 356.062 116.528L350.064 118.138Z" fill="url(#paint42_linear_83_392)"/>
<path opacity="0.5" fill-rule="evenodd" clip-rule="evenodd" d="M365.205 89.6834L350.354 118.061L350.064 118.139L348.008 112.024C344.855 102.644 349.759 93.0375 358.963 90.5667L364.961 88.9561L365.205 89.6834Z" fill="#529D6A"/>
<path d="M49.7354 177.441L26.609 211.17H15.8434L44.0741 173.794C44.8 172.808 45.0107 171.554 44.6446 170.398L43.1508 165.679C42.0942 162.341 42.6384 158.724 44.6353 155.812L47.9371 150.996L76.271 116.191C76.6925 115.674 77.4583 115.557 78.0258 115.923C78.6274 116.312 78.7845 117.098 78.3752 117.674L52.9701 153.388C52.5056 154.042 52.7308 154.938 53.4542 155.315C54.0727 155.637 54.8439 155.463 55.249 154.91L81.0221 119.721C81.4249 119.171 82.2108 119.031 82.7915 119.406C83.3761 119.784 83.5366 120.544 83.1512 121.111L58.4029 157.545C58.0168 158.113 58.1774 158.875 58.7636 159.253C59.3436 159.628 60.1284 159.491 60.5337 158.943L86.5778 123.781C87.0055 123.204 87.8684 123.13 88.3951 123.626C88.8064 124.013 88.8743 124.626 88.557 125.088L63.7944 161.118C63.4028 161.688 63.5625 162.455 64.1519 162.836C64.7292 163.209 65.5096 163.075 65.9183 162.534L92.6717 127.117C92.8949 126.821 93.2756 126.675 93.6491 126.743C94.3101 126.863 94.6532 127.572 94.3231 128.136L71.6072 166.945L68.6292 170.948C66.2376 174.164 62.3222 176.003 58.2154 175.84L53.3229 175.646C51.8801 175.588 50.5143 176.272 49.7354 177.441Z" fill="url(#paint43_linear_83_392)"/>
<path d="M111.109 41.8091C111.109 59.1811 96.4677 73.2637 78.4062 73.2637C60.3448 73.2637 45.7031 59.1811 45.7031 41.8091C45.7031 24.4372 60.3448 10.3545 78.4062 10.3545C96.4677 10.3545 111.109 24.4372 111.109 41.8091Z" fill="url(#paint44_radial_83_392)"/>
<path fill-rule="evenodd" clip-rule="evenodd" d="M78.4062 71.7008C95.5703 71.7008 109.484 58.3179 109.484 41.8091C109.484 25.3003 95.5703 11.9175 78.4062 11.9175C61.2422 11.9175 47.3281 25.3003 47.3281 41.8091C47.3281 58.3179 61.2422 71.7008 78.4062 71.7008ZM78.4062 73.2637C96.4677 73.2637 111.109 59.1811 111.109 41.8091C111.109 24.4372 96.4677 10.3545 78.4062 10.3545C60.3448 10.3545 45.7031 24.4372 45.7031 41.8091C45.7031 59.1811 60.3448 73.2637 78.4062 73.2637Z" fill="white"/>
<path d="M94.25 65.9376C94.25 74.4077 87.111 81.2742 78.3047 81.2742C69.4984 81.2742 62.3594 74.4077 62.3594 65.9376C62.3594 57.4676 69.4984 50.6011 78.3047 50.6011C87.111 50.6011 94.25 57.4676 94.25 65.9376Z" fill="url(#paint45_radial_83_392)"/>
<path fill-rule="evenodd" clip-rule="evenodd" d="M78.3047 79.7113C86.2136 79.7113 92.625 73.5446 92.625 65.9376C92.625 58.3307 86.2136 52.164 78.3047 52.164C70.3958 52.164 63.9844 58.3307 63.9844 65.9376C63.9844 73.5446 70.3958 79.7113 78.3047 79.7113ZM78.3047 81.2742C87.111 81.2742 94.25 74.4077 94.25 65.9376C94.25 57.4676 87.111 50.6011 78.3047 50.6011C69.4984 50.6011 62.3594 57.4676 62.3594 65.9376C62.3594 74.4077 69.4984 81.2742 78.3047 81.2742Z" fill="white"/>
<path d="M78.3047 64.8628C91.5984 64.8628 102.375 54.4976 102.375 41.7114C102.375 28.9253 91.5984 18.5601 78.3047 18.5601C65.011 18.5601 54.2344 28.9253 54.2344 41.7114C54.2344 54.4976 65.011 64.8628 78.3047 64.8628Z" fill="#6C1C51"/>
<path d="M297.117 166.335C290.079 159.221 290.371 147.968 297.767 141.2C305.163 134.431 316.863 134.711 323.899 141.824C330.935 148.938 330.645 160.191 323.249 166.96C315.853 173.728 304.153 173.448 297.117 166.335Z" fill="url(#paint46_linear_83_392)"/>
<path d="M299.018 164.693C292.927 158.534 293.178 148.79 299.581 142.93C305.985 137.07 316.115 137.312 322.209 143.471C328.303 149.63 328.051 159.374 321.646 165.234C315.242 171.095 305.112 170.853 299.018 164.693Z" fill="#F9747C"/>
<path fill-rule="evenodd" clip-rule="evenodd" d="M313.838 155.345C312.743 155.399 311.85 156.203 311.718 157.249L310.968 163.176C310.54 166.576 314.809 168.59 317.34 166.18L322.538 161.233C324.992 158.898 323.15 154.885 319.703 155.056L313.838 155.345ZM307.137 152.813C308.232 152.759 309.126 151.956 309.258 150.909L310.007 144.982C310.436 141.582 306.166 139.569 303.635 141.978L298.437 146.926C295.984 149.26 297.826 153.273 301.273 153.103L307.137 152.813ZM306.658 155.351C307.747 155.478 308.581 156.339 308.638 157.392L308.939 163.032C309.116 166.347 304.943 168.118 302.516 165.759L297.373 160.76C294.868 158.326 296.961 154.218 300.495 154.631L306.658 155.351ZM314.019 152.467C312.928 152.36 312.077 151.515 311.998 150.464L311.557 144.508C311.305 141.092 315.675 139.285 318.078 141.812L323.013 147.002C325.341 149.451 323.294 153.371 319.861 153.036L314.019 152.467Z" fill="url(#paint47_linear_83_392)"/>
<path fill-rule="evenodd" clip-rule="evenodd" d="M311.023 159.1C310.708 162.111 314.502 163.873 316.759 161.725L318.077 160.47C320.259 158.393 318.66 154.839 315.626 154.914C315.748 154.37 315.78 153.811 315.725 153.258L315.766 153.262C318.849 153.562 320.688 150.039 318.595 147.839L317.342 146.521C315.28 144.353 311.608 145.735 311.478 148.537C310.992 148.423 310.495 148.373 309.997 148.385C309.625 145.893 306.321 144.632 304.277 146.577L302.959 147.832C300.991 149.705 302.098 152.779 304.562 153.31C304.517 153.804 304.543 154.304 304.641 154.793C301.724 154.779 300.107 158.239 302.256 160.328L303.562 161.597C305.744 163.716 309.491 162.125 309.335 159.147L309.333 159.109C309.894 159.188 310.462 159.185 311.023 159.1Z" fill="#F9747C"/>
<path fill-rule="evenodd" clip-rule="evenodd" d="M318.364 162.651C318.08 162.362 317.968 162.016 318.118 161.878C318.268 161.741 318.624 161.864 318.908 162.153C319.195 162.442 319.304 162.788 319.154 162.925C319.004 163.063 318.65 162.94 318.364 162.651ZM320.868 159.695C320.47 159.582 320.196 159.335 320.255 159.144C320.314 158.953 320.684 158.889 321.082 159.002C321.48 159.115 321.754 159.361 321.695 159.553C321.636 159.744 321.267 159.808 320.868 159.695ZM315.345 164.036C315.142 164.083 315.059 164.435 315.157 164.823C315.254 165.211 315.496 165.488 315.697 165.441C315.898 165.394 315.983 165.042 315.886 164.654C315.788 164.266 315.547 163.989 315.345 164.036Z" fill="#F2C76C"/>
<path fill-rule="evenodd" clip-rule="evenodd" d="M301.486 161.683C301.787 161.407 302.146 161.301 302.289 161.445C302.433 161.589 302.305 161.93 302.004 162.205C301.704 162.481 301.346 162.587 301.202 162.443C301.058 162.299 301.186 161.958 301.486 161.683ZM304.564 164.086C304.679 163.703 304.937 163.438 305.136 163.494C305.335 163.55 305.4 163.906 305.285 164.289C305.169 164.672 304.913 164.937 304.714 164.881C304.515 164.825 304.448 164.469 304.564 164.086ZM300.04 158.78C299.991 158.586 299.626 158.506 299.221 158.6C298.819 158.694 298.531 158.928 298.58 159.122C298.628 159.316 298.996 159.397 299.398 159.302C299.802 159.208 300.089 158.974 300.04 158.78Z" fill="#F2C76C"/>
<path fill-rule="evenodd" clip-rule="evenodd" d="M299.991 148.376C300.389 148.488 300.664 148.735 300.605 148.927C300.546 149.118 300.176 149.182 299.778 149.069C299.38 148.956 299.106 148.709 299.162 148.518C299.221 148.326 299.593 148.263 299.991 148.376ZM302.494 145.419C302.78 145.709 302.89 146.054 302.74 146.192C302.589 146.33 302.236 146.207 301.949 145.917C301.665 145.628 301.553 145.283 301.704 145.145C301.854 145.007 302.209 145.13 302.494 145.419ZM305.514 144.034C305.715 143.987 305.801 143.635 305.703 143.247C305.606 142.859 305.364 142.582 305.163 142.629C304.96 142.676 304.876 143.029 304.974 143.417C305.071 143.805 305.313 144.081 305.514 144.034Z" fill="#F2C76C"/>
<path fill-rule="evenodd" clip-rule="evenodd" d="M316.296 143.985C316.178 144.368 315.922 144.633 315.723 144.577C315.524 144.521 315.457 144.165 315.575 143.782C315.691 143.398 315.947 143.134 316.146 143.19C316.345 143.246 316.412 143.602 316.296 143.985ZM319.373 146.388C319.073 146.664 318.713 146.77 318.571 146.626C318.427 146.481 318.555 146.141 318.855 145.865C319.154 145.59 319.514 145.483 319.658 145.628C319.8 145.772 319.674 146.112 319.373 146.388ZM320.82 149.29C320.868 149.484 321.234 149.565 321.638 149.471C322.04 149.376 322.329 149.143 322.278 148.949C322.229 148.755 321.864 148.674 321.46 148.768C321.057 148.863 320.769 149.097 320.82 149.29Z" fill="#F2C76C"/>
<path d="M315.193 199.643C305.09 198.24 298.082 189.224 299.54 179.506C301.001 169.788 310.373 163.047 320.478 164.451C330.582 165.855 337.59 174.871 336.129 184.588C334.671 194.307 325.297 201.048 315.193 199.643Z" fill="url(#paint48_linear_83_392)"/>
<path d="M315.632 197.223C306.883 196.007 300.816 188.2 302.079 179.786C303.343 171.371 311.46 165.535 320.208 166.75C328.957 167.966 335.024 175.772 333.761 184.187C332.497 192.601 324.38 198.438 315.632 197.223Z" fill="#F9747C"/>
<path fill-rule="evenodd" clip-rule="evenodd" d="M321.267 181.06C320.442 181.754 320.255 182.918 320.824 183.819L324.047 188.921C325.896 191.848 330.547 190.89 330.986 187.491L331.888 180.511C332.315 177.218 328.287 175.16 325.689 177.344L321.267 181.06ZM314.372 183.058C315.197 182.364 315.384 181.2 314.815 180.299L311.592 175.196C309.743 172.269 305.092 173.228 304.653 176.626L303.749 183.606C303.325 186.9 307.352 188.957 309.95 186.774L314.372 183.058ZM315.628 185.336C316.564 184.789 317.775 184.969 318.496 185.763L322.359 190.016C324.63 192.515 322.489 196.388 319.067 195.98L311.809 195.111C308.277 194.688 307.279 190.215 310.322 188.437L315.628 185.336ZM319.558 178.691C318.632 179.256 317.419 179.099 316.682 178.319L312.506 173.901C310.109 171.367 312.382 167.349 315.894 167.905L323.111 169.047C326.515 169.586 327.427 173.884 324.515 175.663L319.558 178.691Z" fill="url(#paint49_linear_83_392)"/>
<path fill-rule="evenodd" clip-rule="evenodd" d="M321.468 185.686C323.158 188.239 327.273 187.366 327.663 184.337L327.892 182.565C328.272 179.636 324.73 177.794 322.394 179.659C322.14 179.159 321.807 178.7 321.407 178.298L321.441 178.278C324.057 176.678 323.237 172.816 320.178 172.332L318.346 172.042C315.331 171.565 313.333 174.836 315.033 177.115C314.58 177.314 314.155 177.571 313.773 177.876C311.878 176.139 308.47 177.114 308.114 179.858L307.887 181.629C307.543 184.271 310.391 186.028 312.668 184.98C312.951 185.395 313.292 185.771 313.684 186.098C311.382 187.822 312.337 191.503 315.37 191.865L317.212 192.086C320.287 192.454 322.211 188.974 320.172 186.727L320.145 186.698C320.637 186.427 321.084 186.086 321.468 185.686Z" fill="#F9747C"/>
<path fill-rule="evenodd" clip-rule="evenodd" d="M329.522 184.109C329.109 184.052 328.8 183.846 328.831 183.648C328.861 183.451 329.217 183.337 329.629 183.394C330.04 183.451 330.348 183.657 330.318 183.855C330.289 184.052 329.932 184.166 329.522 184.109ZM329.589 180.296C329.203 180.445 328.827 180.414 328.75 180.229C328.675 180.044 328.924 179.773 329.308 179.625C329.694 179.477 330.07 179.507 330.147 179.693C330.222 179.878 329.972 180.148 329.589 180.296ZM328.039 186.994C327.911 187.151 328.071 187.478 328.396 187.725C328.723 187.972 329.091 188.045 329.219 187.888C329.347 187.731 329.186 187.404 328.861 187.157C328.534 186.91 328.167 186.837 328.039 186.994Z" fill="#F2C76C"/>
<path fill-rule="evenodd" clip-rule="evenodd" d="M315.634 193.388C315.693 192.993 315.908 192.696 316.113 192.724C316.318 192.752 316.438 193.095 316.379 193.491C316.32 193.886 316.105 194.183 315.9 194.155C315.695 194.127 315.577 193.784 315.634 193.388ZM319.599 193.446C319.445 193.076 319.475 192.715 319.668 192.641C319.861 192.566 320.141 192.806 320.296 193.177C320.45 193.547 320.42 193.908 320.229 193.982C320.036 194.056 319.753 193.816 319.599 193.446ZM312.632 191.968C312.469 191.844 312.13 191.999 311.874 192.313C311.618 192.627 311.541 192.982 311.705 193.105C311.868 193.228 312.209 193.073 312.465 192.759C312.721 192.445 312.796 192.091 312.632 191.968Z" fill="#F2C76C"/>
<path fill-rule="evenodd" clip-rule="evenodd" d="M305.902 183.822C306.288 183.674 306.664 183.704 306.741 183.889C306.816 184.075 306.566 184.345 306.182 184.493C305.797 184.641 305.421 184.611 305.346 184.426C305.268 184.24 305.518 183.97 305.902 183.822ZM305.969 180.009C306.382 180.066 306.69 180.273 306.66 180.47C306.629 180.668 306.274 180.782 305.862 180.725C305.451 180.668 305.143 180.461 305.173 180.264C305.201 180.066 305.559 179.952 305.969 180.009ZM307.452 177.124C307.58 176.968 307.42 176.64 307.095 176.393C306.767 176.146 306.4 176.073 306.272 176.23C306.144 176.387 306.304 176.714 306.629 176.961C306.956 177.208 307.324 177.281 307.452 177.124Z" fill="#F2C76C"/>
<path fill-rule="evenodd" clip-rule="evenodd" d="M315.892 170.672C316.046 171.042 316.016 171.402 315.823 171.477C315.632 171.551 315.35 171.311 315.195 170.941C315.041 170.571 315.071 170.21 315.264 170.136C315.455 170.061 315.737 170.301 315.892 170.672ZM319.857 170.729C319.798 171.124 319.583 171.422 319.377 171.394C319.172 171.366 319.055 171.022 319.111 170.627C319.17 170.232 319.386 169.935 319.591 169.963C319.796 169.991 319.914 170.334 319.857 170.729ZM322.859 172.15C323.022 172.273 323.361 172.119 323.617 171.805C323.875 171.491 323.95 171.136 323.785 171.013C323.623 170.89 323.284 171.044 323.026 171.359C322.77 171.672 322.695 172.027 322.859 172.15Z" fill="#F2C76C"/>
<path fill-rule="evenodd" clip-rule="evenodd" d="M31.501 66.9071L36.8924 58.1891L36.1886 57.7866L30.7974 66.5046C27.885 71.2138 26.3851 76.4988 26.3155 81.807L23.1487 73.2584L22.3775 73.5225L26.2578 83.9979L26.3656 83.961C26.5795 87.5323 27.443 91.0807 28.9618 94.4369L22.3639 87.8035L21.7724 88.3478L30.1141 96.7347L35.9277 107.661L36.6566 107.302L30.5453 95.8166C29.3156 93.5054 28.4192 91.0816 27.8545 88.6071L36.6533 78.8663L36.0352 78.3499L27.6498 87.6332C26.2972 80.5973 27.5964 73.2211 31.501 66.9071Z" fill="#B43945"/>
<path d="M37.3006 66.0936C34.975 68.2334 31.2863 68.1549 29.0616 65.9181C26.8368 63.6814 26.9185 60.1335 29.244 57.9936C31.5695 55.8538 35.2582 55.9324 37.483 58.1691C39.7078 60.4059 39.6261 63.9538 37.3006 66.0936Z" fill="url(#paint50_radial_83_392)"/>
<path d="M39.9544 81.471C37.6289 83.6109 33.9402 83.5323 31.7154 81.2956C29.4906 79.0588 29.5723 75.5109 31.8978 73.3711C34.2233 71.2313 37.9121 71.3098 40.1368 73.5466C42.3616 75.7833 42.2799 79.3312 39.9544 81.471Z" fill="url(#paint51_radial_83_392)"/>
<path d="M24.7129 75.7894C22.3874 77.9292 18.6987 77.8507 16.4739 75.6139C14.2491 73.3772 14.3308 69.8293 16.6563 67.6894C18.9819 65.5496 22.6706 65.6282 24.8954 67.8649C27.1201 70.1017 27.0384 73.6496 24.7129 75.7894Z" fill="url(#paint52_radial_83_392)"/>
<path d="M22.4528 91.7054C20.1273 93.8452 16.4386 93.7667 14.2138 91.5299C11.989 89.2932 12.0707 85.7453 14.3962 83.6055C16.7218 81.4656 20.4105 81.5442 22.6353 83.7809C24.86 86.0177 24.7783 89.5656 22.4528 91.7054Z" fill="url(#paint53_radial_83_392)"/>
</g>
</g>
<defs>
<radialGradient id="paint0_radial_83_392" cx="0" cy="0" r="1" gradientUnits="userSpaceOnUse" gradientTransform="translate(194.898 105.402) rotate(80.3494) scale(69.8276 72.4464)">
<stop stop-color="#DDE5EF"/>
<stop offset="1" stop-color="#F8F9FA"/>
</radialGradient>
<radialGradient id="paint1_radial_83_392" cx="0" cy="0" r="1" gradientUnits="userSpaceOnUse" gradientTransform="translate(194.765 105.274) rotate(84.0012) scale(113.29 117.69)">
<stop stop-color="#E8EDF3"/>
<stop offset="1" stop-color="#F8F9FA"/>
</radialGradient>
<linearGradient id="paint2_linear_83_392" x1="195.574" y1="56.6572" x2="195.574" y2="163.873" gradientUnits="userSpaceOnUse">
<stop stop-color="#F1D8BB"/>
<stop offset="1" stop-color="#F2DEA5"/>
</linearGradient>
<linearGradient id="paint3_linear_83_392" x1="195.574" y1="49.624" x2="195.574" y2="156.839" gradientUnits="userSpaceOnUse">
<stop stop-color="#F1D8BB"/>
<stop offset="1" stop-color="#F2DEA5"/>
</linearGradient>
<linearGradient id="paint4_linear_83_392" x1="187.383" y1="108.235" x2="187.383" y2="154.859" gradientUnits="userSpaceOnUse">
<stop stop-color="#F1D8BB"/>
<stop offset="1" stop-color="#F2DEA5"/>
</linearGradient>
<linearGradient id="paint5_linear_83_392" x1="158.336" y1="48.2563" x2="158.336" y2="94.8795" gradientUnits="userSpaceOnUse">
<stop stop-color="#F1D8BB"/>
<stop offset="1" stop-color="#F2DEA5"/>
</linearGradient>
<linearGradient id="paint6_linear_83_392" x1="176.414" y1="99.6387" x2="176.414" y2="146.262" gradientUnits="userSpaceOnUse">
<stop stop-color="#F1D8BB"/>
<stop offset="1" stop-color="#F2DEA5"/>
</linearGradient>
<linearGradient id="paint7_linear_83_392" x1="200.281" y1="42.3955" x2="200.281" y2="101.113" gradientUnits="userSpaceOnUse">
<stop stop-color="#F1D8BB"/>
<stop offset="1" stop-color="#F2DEA5"/>
</linearGradient>
<linearGradient id="paint8_linear_83_392" x1="241.623" y1="87.7212" x2="241.623" y2="143.752" gradientUnits="userSpaceOnUse">
<stop stop-color="#F1D8BB"/>
<stop offset="1" stop-color="#F2DEA5"/>
</linearGradient>
<linearGradient id="paint9_linear_83_392" x1="220.086" y1="102.179" x2="220.086" y2="148.872" gradientUnits="userSpaceOnUse">
<stop stop-color="#F1D8BB"/>
<stop offset="1" stop-color="#F2DEA5"/>
</linearGradient>
<linearGradient id="paint10_linear_83_392" x1="222.885" y1="58.6109" x2="222.885" y2="142.126" gradientUnits="userSpaceOnUse">
<stop stop-color="#F1D8BB"/>
<stop offset="1" stop-color="#F2DEA5"/>
</linearGradient>
<linearGradient id="paint11_linear_83_392" x1="198.509" y1="52.75" x2="198.509" y2="136.265" gradientUnits="userSpaceOnUse">
<stop stop-color="#F1D8BB"/>
<stop offset="1" stop-color="#F2DEA5"/>
</linearGradient>
<linearGradient id="paint12_linear_83_392" x1="163.414" y1="105.305" x2="163.414" y2="151.928" gradientUnits="userSpaceOnUse">
<stop stop-color="#F1D8BB"/>
<stop offset="1" stop-color="#F2DEA5"/>
</linearGradient>
<linearGradient id="paint13_linear_83_392" x1="219.477" y1="86.9399" x2="219.477" y2="133.563" gradientUnits="userSpaceOnUse">
<stop stop-color="#F1D8BB"/>
<stop offset="1" stop-color="#F2DEA5"/>
</linearGradient>
<linearGradient id="paint14_linear_83_392" x1="204.604" y1="76.1944" x2="204.604" y2="159.709" gradientUnits="userSpaceOnUse">
<stop stop-color="#F1D8BB"/>
<stop offset="1" stop-color="#F2DEA5"/>
</linearGradient>
<linearGradient id="paint15_linear_83_392" x1="188.931" y1="102.765" x2="188.931" y2="151.529" gradientUnits="userSpaceOnUse">
<stop stop-color="#F1D8BB"/>
<stop offset="1" stop-color="#F2DEA5"/>
</linearGradient>
<linearGradient id="paint16_linear_83_392" x1="196.016" y1="57.2436" x2="196.016" y2="115.961" gradientUnits="userSpaceOnUse">
<stop stop-color="#F1D8BB"/>
<stop offset="1" stop-color="#F2DEA5"/>
</linearGradient>
<linearGradient id="paint17_linear_83_392" x1="196.016" y1="52.7499" x2="196.016" y2="111.468" gradientUnits="userSpaceOnUse">
<stop stop-color="#F1D8BB"/>
<stop offset="1" stop-color="#F2DEA5"/>
</linearGradient>
<linearGradient id="paint18_linear_83_392" x1="160.696" y1="84.5952" x2="160.696" y2="133.359" gradientUnits="userSpaceOnUse">
<stop stop-color="#F1D8BB"/>
<stop offset="1" stop-color="#F2DEA5"/>
</linearGradient>
<linearGradient id="paint19_linear_83_392" x1="183.884" y1="59.7832" x2="183.884" y2="143.298" gradientUnits="userSpaceOnUse">
<stop stop-color="#F1D8BB"/>
<stop offset="1" stop-color="#F2DEA5"/>
</linearGradient>
<linearGradient id="paint20_linear_83_392" x1="166.181" y1="94.3638" x2="166.181" y2="143.128" gradientUnits="userSpaceOnUse">
<stop stop-color="#F1D8BB"/>
<stop offset="1" stop-color="#F2DEA5"/>
</linearGradient>
<linearGradient id="paint21_linear_83_392" x1="215.337" y1="73.2637" x2="215.337" y2="122.028" gradientUnits="userSpaceOnUse">
<stop stop-color="#F1D8BB"/>
<stop offset="1" stop-color="#F2DEA5"/>
</linearGradient>
<linearGradient id="paint22_linear_83_392" x1="223.641" y1="59.1973" x2="223.641" y2="139.299" gradientUnits="userSpaceOnUse">
<stop stop-color="#F1D8BB"/>
<stop offset="1" stop-color="#F2DEA5"/>
</linearGradient>
<linearGradient id="paint23_linear_83_392" x1="194.905" y1="46.6934" x2="194.905" y2="102.724" gradientUnits="userSpaceOnUse">
<stop stop-color="#F1D8BB"/>
<stop offset="1" stop-color="#F2DEA5"/>
</linearGradient>
<linearGradient id="paint24_linear_83_392" x1="164.588" y1="53.7266" x2="164.588" y2="137.242" gradientUnits="userSpaceOnUse">
<stop stop-color="#F1D8BB"/>
<stop offset="1" stop-color="#F2DEA5"/>
</linearGradient>
<linearGradient id="paint25_linear_83_392" x1="206.34" y1="55.8759" x2="206.34" y2="163.091" gradientUnits="userSpaceOnUse">
<stop stop-color="#F1D8BB"/>
<stop offset="1" stop-color="#F2DEA5"/>
</linearGradient>
<linearGradient id="paint26_linear_83_392" x1="219.68" y1="108.626" x2="219.68" y2="155.32" gradientUnits="userSpaceOnUse">
<stop stop-color="#F1D8BB"/>
<stop offset="1" stop-color="#F2DEA5"/>
</linearGradient>
<linearGradient id="paint27_linear_83_392" x1="201.15" y1="66.8164" x2="201.15" y2="150.331" gradientUnits="userSpaceOnUse">
<stop stop-color="#F1D8BB"/>
<stop offset="1" stop-color="#F2DEA5"/>
</linearGradient>
<linearGradient id="paint28_linear_83_392" x1="193.543" y1="58.6113" x2="193.543" y2="165.827" gradientUnits="userSpaceOnUse">
<stop stop-color="#F1D8BB"/>
<stop offset="1" stop-color="#F2DEA5"/>
</linearGradient>
<linearGradient id="paint29_linear_83_392" x1="202.275" y1="56.2666" x2="202.275" y2="137.144" gradientUnits="userSpaceOnUse">
<stop stop-color="#F1D8BB"/>
<stop offset="1" stop-color="#F2DEA5"/>
</linearGradient>
<linearGradient id="paint30_linear_83_392" x1="172.155" y1="75.6084" x2="172.155" y2="131.639" gradientUnits="userSpaceOnUse">
<stop stop-color="#F1D8BB"/>
<stop offset="1" stop-color="#F2DEA5"/>
</linearGradient>
<linearGradient id="paint31_linear_83_392" x1="173.577" y1="106.281" x2="173.577" y2="162.312" gradientUnits="userSpaceOnUse">
<stop stop-color="#F1D8BB"/>
<stop offset="1" stop-color="#F2DEA5"/>
</linearGradient>
<linearGradient id="paint32_linear_83_392" x1="186.367" y1="81.2739" x2="186.367" y2="127.967" gradientUnits="userSpaceOnUse">
<stop stop-color="#F1D8BB"/>
<stop offset="1" stop-color="#F2DEA5"/>
</linearGradient>
<radialGradient id="paint33_radial_83_392" cx="0" cy="0" r="1" gradientUnits="userSpaceOnUse" gradientTransform="translate(190.328 107.063) rotate(90.1942) scale(89.8708 91.4334)">
<stop stop-color="#F07261"/>
<stop offset="1" stop-color="#E62151"/>
</radialGradient>
<linearGradient id="paint34_linear_83_392" x1="162.909" y1="102.302" x2="183.066" y2="99.2274" gradientUnits="userSpaceOnUse">
<stop stop-color="#64B581"/>
<stop offset="1" stop-color="#8DE691"/>
</linearGradient>
<linearGradient id="paint35_linear_83_392" x1="207.811" y1="121.154" x2="199.728" y2="139.186" gradientUnits="userSpaceOnUse">
<stop stop-color="#64B581"/>
<stop offset="1" stop-color="#8DE691"/>
</linearGradient>
<linearGradient id="paint36_linear_83_392" x1="217.789" y1="94.0353" x2="205.383" y2="78.4316" gradientUnits="userSpaceOnUse">
<stop stop-color="#64B581"/>
<stop offset="1" stop-color="#8DE691"/>
</linearGradient>
<linearGradient id="paint37_linear_83_392" x1="301.852" y1="47.456" x2="278.699" y2="44.0129" gradientUnits="userSpaceOnUse">
<stop stop-color="#64B581"/>
<stop offset="1" stop-color="#8DE691"/>
</linearGradient>
<linearGradient id="paint38_linear_83_392" x1="328.455" y1="32.2961" x2="329.558" y2="55.4504" gradientUnits="userSpaceOnUse">
<stop stop-color="#64B581"/>
<stop offset="1" stop-color="#8DE691"/>
</linearGradient>
<linearGradient id="paint39_linear_83_392" x1="304.04" y1="68.091" x2="327.128" y2="67.2274" gradientUnits="userSpaceOnUse">
<stop stop-color="#64B581"/>
<stop offset="1" stop-color="#8DE691"/>
</linearGradient>
<linearGradient id="paint40_linear_83_392" x1="317.103" y1="90.7181" x2="339.502" y2="98.3568" gradientUnits="userSpaceOnUse">
<stop stop-color="#64B581"/>
<stop offset="1" stop-color="#8DE691"/>
</linearGradient>
<linearGradient id="paint41_linear_83_392" x1="352.655" y1="62.7334" x2="348.895" y2="85.2491" gradientUnits="userSpaceOnUse">
<stop stop-color="#64B581"/>
<stop offset="1" stop-color="#8DE691"/>
</linearGradient>
<linearGradient id="paint42_linear_83_392" x1="362.879" y1="97.6211" x2="353.136" y2="117.844" gradientUnits="userSpaceOnUse">
<stop stop-color="#64B581"/>
<stop offset="1" stop-color="#8DE691"/>
</linearGradient>
<linearGradient id="paint43_linear_83_392" x1="113.929" y1="130.996" x2="21.3652" y2="213.756" gradientUnits="userSpaceOnUse">
<stop stop-color="#FAFBFB"/>
<stop offset="1" stop-color="#DEEBF2"/>
</linearGradient>
<radialGradient id="paint44_radial_83_392" cx="0" cy="0" r="1" gradientUnits="userSpaceOnUse" gradientTransform="translate(77.0859 41.8091) rotate(91.7925) scale(29.2222 30.3799)">
<stop stop-color="#D3DDEA" stop-opacity="0.33"/>
<stop offset="1" stop-color="#F8F9FA" stop-opacity="0.79"/>
</radialGradient>
<radialGradient id="paint45_radial_83_392" cx="0" cy="0" r="1" gradientUnits="userSpaceOnUse" gradientTransform="translate(77.661 65.9376) rotate(91.7925) scale(14.2481 14.8125)">
<stop stop-color="#D3DDEA" stop-opacity="0.33"/>
<stop offset="1" stop-color="#F8F9FA" stop-opacity="0.79"/>
</radialGradient>
<linearGradient id="paint46_linear_83_392" x1="329.928" y1="165.637" x2="292.461" y2="150.722" gradientUnits="userSpaceOnUse">
<stop stop-color="#E23B45"/>
<stop offset="1" stop-color="#F4616A"/>
</linearGradient>
<linearGradient id="paint47_linear_83_392" x1="325.13" y1="162.639" x2="297.071" y2="151.054" gradientUnits="userSpaceOnUse">
<stop stop-color="#E23B45"/>
<stop offset="1" stop-color="#F4616A"/>
</linearGradient>
<linearGradient id="paint48_linear_83_392" x1="340.527" y1="179.577" x2="302.091" y2="191.988" gradientUnits="userSpaceOnUse">
<stop stop-color="#E23B45"/>
<stop offset="1" stop-color="#F4616A"/>
</linearGradient>
<linearGradient id="paint49_linear_83_392" x1="334.829" y1="180.075" x2="305.76" y2="189.055" gradientUnits="userSpaceOnUse">
<stop stop-color="#E23B45"/>
<stop offset="1" stop-color="#F4616A"/>
</linearGradient>
<radialGradient id="paint50_radial_83_392" cx="0" cy="0" r="1" gradientUnits="userSpaceOnUse" gradientTransform="translate(33.3743 69.7063) rotate(34.2557) scale(10.2172 11.9474)">
<stop stop-color="#F0D36D"/>
<stop offset="0.40243" stop-color="#F2C76C"/>
<stop offset="1" stop-color="#F0864C"/>
</radialGradient>
<radialGradient id="paint51_radial_83_392" cx="0" cy="0" r="1" gradientUnits="userSpaceOnUse" gradientTransform="translate(36.0282 85.0838) rotate(34.2557) scale(10.2172 11.9474)">
<stop stop-color="#F0D36D"/>
<stop offset="0.40243" stop-color="#F2C76C"/>
<stop offset="1" stop-color="#F0864C"/>
</radialGradient>
<radialGradient id="paint52_radial_83_392" cx="0" cy="0" r="1" gradientUnits="userSpaceOnUse" gradientTransform="translate(20.7867 79.4021) rotate(34.2557) scale(10.2172 11.9474)">
<stop stop-color="#F0D36D"/>
<stop offset="0.40243" stop-color="#F2C76C"/>
<stop offset="1" stop-color="#F0864C"/>
</radialGradient>
<radialGradient id="paint53_radial_83_392" cx="0" cy="0" r="1" gradientUnits="userSpaceOnUse" gradientTransform="translate(18.5266 95.3181) rotate(34.2557) scale(10.2172 11.9474)">
<stop stop-color="#F0D36D"/>
<stop offset="0.40243" stop-color="#F2C76C"/>
<stop offset="1" stop-color="#F0864C"/>
</radialGradient>
<clipPath id="clip0_83_392">
<rect width="390" height="211" fill="white"/>
</clipPath>
</defs>
</svg>
