<?xml version="1.0" standalone="no"?>
<!DOCTYPE svg PUBLIC "-//W3C//DTD SVG 20010904//EN"
 "http://www.w3.org/TR/2001/REC-SVG-20010904/DTD/svg10.dtd">
<svg version="1.0" xmlns="http://www.w3.org/2000/svg"
 width="64.000000pt" height="64.000000pt" viewBox="0 0 64.000000 64.000000"
 preserveAspectRatio="xMidYMid meet">

<g transform="translate(0.000000,64.000000) scale(0.100000,-0.100000)"
fill="#000000" stroke="none">
<path d="M174 593 c3 -27 15 -60 25 -74 l20 -27 -39 -30 c-62 -50 -80 -100
-80 -222 0 -97 -1 -104 -25 -126 -20 -18 -25 -33 -25 -69 l0 -45 270 0 270 0
0 45 c0 36 -5 51 -24 68 -22 21 -24 31 -28 139 -3 112 -4 118 -35 162 -30 42
-31 45 -13 51 23 7 60 52 60 71 0 23 -34 16 -45 -8 -7 -16 -20 -24 -43 -26
-33 -3 -33 -3 -18 20 9 14 19 45 22 71 l7 47 -153 0 -153 0 7 -47z m251 -20
c-13 -53 -42 -73 -105 -73 -63 0 -92 20 -105 73 l-7 27 112 0 112 0 -7 -27z
m-1 -133 c57 -35 80 -91 84 -207 4 -90 2 -103 -12 -103 -9 0 -16 -8 -16 -20 0
-16 7 -20 34 -20 32 0 46 -13 46 -41 0 -5 -101 -9 -240 -9 -139 0 -240 4 -240
9 0 28 14 41 46 41 27 0 34 4 34 20 0 12 -7 20 -16 20 -14 0 -16 13 -12 103 4
115 26 171 83 207 43 28 165 28 209 0z"/>
<path d="M210 295 c0 -60 12 -81 55 -95 31 -10 35 -16 35 -46 0 -27 4 -34 20
-34 16 0 20 7 20 34 0 30 4 36 35 46 43 14 55 35 55 95 l0 47 -47 -6 c-27 -3
-55 -6 -63 -6 -8 0 -36 3 -62 6 l-48 6 0 -47z m78 -7 c16 -16 15 -58 -1 -58
-20 0 -37 22 -37 47 0 25 19 30 38 11z m102 -11 c0 -25 -17 -47 -37 -47 -16 0
-17 42 -1 58 19 19 38 14 38 -11z"/>
</g>
</svg>
