<?xml version="1.0" standalone="no"?>
<!DOCTYPE svg PUBLIC "-//W3C//DTD SVG 20010904//EN"
 "http://www.w3.org/TR/2001/REC-SVG-20010904/DTD/svg10.dtd">
<svg version="1.0" xmlns="http://www.w3.org/2000/svg"
 width="64.000000pt" height="64.000000pt" viewBox="0 0 64.000000 64.000000"
 preserveAspectRatio="xMidYMid meet">

<g transform="translate(0.000000,64.000000) scale(0.100000,-0.100000)"
fill="#000000" stroke="none">
<path d="M180 586 c0 -37 -8 -71 -25 -108 -24 -51 -25 -60 -25 -265 l0 -213
190 0 190 0 0 213 c0 205 -1 214 -25 265 -17 37 -25 71 -25 108 l0 54 -140 0
-140 0 0 -54z m148 -18 c-3 -29 -7 -33 -50 -44 -26 -6 -49 -9 -52 -6 -4 3 -6
23 -6 44 l0 38 56 0 55 0 -3 -32z m92 -2 c0 -18 11 -59 25 -90 l25 -56 -100 0
c-99 0 -101 0 -110 26 -13 34 -6 44 35 44 40 0 75 38 75 81 0 24 4 29 25 29
22 0 25 -4 25 -34z m-203 -116 c11 -29 10 -30 -17 -30 -27 0 -28 1 -17 30 6
17 14 30 17 30 3 0 11 -13 17 -30z m13 -240 l0 -170 -30 0 -30 0 0 170 0 170
30 0 30 0 0 -170z m100 144 c0 -16 14 -40 38 -64 20 -21 45 -50 55 -64 10 -14
24 -26 32 -26 12 0 15 -17 15 -80 0 -86 -14 -105 -38 -51 -8 19 -27 35 -51 44
-22 9 -41 24 -44 36 -3 12 -19 29 -36 38 -31 18 -31 18 -31 106 l0 87 30 0
c26 0 30 -4 30 -26z m140 -44 c0 -74 -13 -92 -31 -42 -5 15 -23 36 -39 46 -20
11 -30 25 -30 42 0 22 4 24 50 24 l50 0 0 -70z m-172 -162 c7 -7 12 -20 12
-30 0 -11 12 -23 28 -29 45 -18 56 -25 60 -37 2 -8 -16 -12 -62 -12 l-66 0 0
60 c0 60 6 70 28 48z"/>
</g>
</svg>
