<?xml version="1.0" standalone="no"?>
<!DOCTYPE svg PUBLIC "-//W3C//DTD SVG 20010904//EN"
 "http://www.w3.org/TR/2001/REC-SVG-20010904/DTD/svg10.dtd">
<svg version="1.0" xmlns="http://www.w3.org/2000/svg"
 width="64.000000pt" height="64.000000pt" viewBox="0 0 64.000000 64.000000"
 preserveAspectRatio="xMidYMid meet">

<g transform="translate(0.000000,64.000000) scale(0.100000,-0.100000)"
fill="#000000" stroke="none">
<path d="M220 624 c-227 -82 -293 -362 -125 -529 65 -65 125 -89 225 -89 100
0 160 24 225 89 65 65 89 125 89 225 0 100 -24 160 -89 225 -82 82 -222 116
-325 79z m226 -52 c22 -11 47 -28 54 -38 13 -15 10 -21 -29 -55 -51 -46 -81
-51 -81 -14 0 15 -14 40 -35 63 l-35 37 -35 -37 c-21 -23 -35 -48 -35 -63 0
-21 -5 -25 -30 -25 l-30 0 0 -102 0 -102 -42 -43 c-23 -24 -46 -43 -50 -43 -4
0 -18 19 -30 42 -30 57 -33 194 -4 248 36 69 105 128 176 151 44 15 161 4 206
-19z m-108 -74 c16 -16 15 -49 -3 -72 -15 -20 -15 -20 -30 0 -8 10 -15 28 -15
40 0 19 17 44 30 44 3 0 11 -5 18 -12z m234 -50 c30 -57 33 -194 4 -248 -25
-49 -84 -108 -131 -133 -57 -31 -193 -31 -251 0 -64 34 -72 49 -43 79 38 40
56 47 81 29 13 -8 33 -15 45 -15 19 0 23 -5 23 -30 0 -23 4 -30 20 -30 16 0
20 7 20 30 0 25 4 30 24 30 14 0 38 11 53 24 27 23 28 29 31 123 l4 98 41 43
c23 23 45 42 49 42 4 0 18 -19 30 -42z m-274 -90 c3 -34 1 -38 -20 -38 -32 0
-48 18 -48 53 0 26 3 28 33 25 29 -3 32 -6 35 -40z m112 14 c0 -34 -16 -52
-47 -52 -19 0 -23 5 -23 33 0 41 5 47 42 47 24 0 28 -4 28 -28z m-112 -134 c3
-34 1 -38 -20 -38 -32 0 -48 18 -48 53 0 26 3 28 33 25 29 -3 32 -6 35 -40z
m112 14 c0 -34 -16 -52 -47 -52 -19 0 -23 5 -23 33 0 41 5 47 42 47 24 0 28
-4 28 -28z"/>
</g>
</svg>
