<?xml version="1.0" standalone="no"?>
<!DOCTYPE svg PUBLIC "-//W3C//DTD SVG 20010904//EN"
 "http://www.w3.org/TR/2001/REC-SVG-20010904/DTD/svg10.dtd">
<svg version="1.0" xmlns="http://www.w3.org/2000/svg"
 width="64.000000pt" height="64.000000pt" viewBox="0 0 64.000000 64.000000"
 preserveAspectRatio="xMidYMid meet">

<g transform="translate(0.000000,64.000000) scale(0.100000,-0.100000)"
fill="#000000" stroke="none">
<path d="M150 590 c0 -37 -5 -55 -20 -70 -19 -19 -20 -33 -20 -270 l0 -250
210 0 210 0 0 248 c0 234 -1 249 -20 270 -15 15 -20 35 -20 72 l0 50 -170 0
-170 0 0 -50z m300 -20 l0 -30 -130 0 -130 0 0 30 0 30 130 0 130 0 0 -30z
m21 -70 c18 -10 19 -23 19 -235 l0 -225 -25 0 c-22 0 -24 3 -15 19 24 46 1 94
-45 93 -18 0 -34 -7 -43 -20 -11 -17 -21 -19 -78 -14 -74 6 -109 -13 -101 -55
3 -17 0 -23 -14 -23 -18 0 -19 12 -19 225 0 203 2 225 18 234 23 14 278 14
303 1z m-53 -404 c5 -24 -16 -46 -44 -46 -29 0 -32 26 -4 33 11 3 20 13 20 22
0 21 24 14 28 -9z m-140 -14 c19 19 39 -6 22 -27 -16 -19 -54 -20 -70 0 -16
20 -4 38 19 25 12 -6 22 -5 29 2z"/>
<path d="M353 433 c-13 -11 -23 -36 -27 -66 -5 -39 -2 -51 14 -67 11 -11 27
-20 36 -20 23 0 74 55 74 80 0 25 -27 80 -39 80 -5 0 -16 2 -24 5 -7 3 -23 -2
-34 -12z m45 -35 c17 -17 15 -53 -3 -68 -19 -16 -42 1 -29 22 5 7 7 23 5 36
-3 24 8 29 27 10z"/>
<path d="M207 292 c-57 -63 52 -173 112 -113 29 29 27 44 -16 91 -41 44 -70
51 -96 22z m53 -36 c0 -8 9 -18 21 -21 11 -4 18 -12 16 -18 -5 -17 -36 -21
-52 -7 -20 16 -19 60 0 60 8 0 15 -6 15 -14z"/>
</g>
</svg>
